<svg width="127" height="14" viewBox="0 0 127 14" fill="none" xmlns="http://www.w3.org/2000/svg">
<path d="M2.19725 0.386719V0.175781H2.56639V0.386719H6.53905V0.175781H9.89647V0.386719H10.2832V0.755859H10.4766V2.54883H10.2832V3.9375H10.0723V4.13086H9.49218V3.9375H9.28124V3.72656H9.10546V2.35547H8.89452V2.16211H8.70116V1.95117H8.12108V1.75781H7.33007V1.54688H5.34374V1.37109H4.14843V1.54688H3.76171V5.71289H4.14843V5.92383H5.5371V5.71289H6.32811V4.92188H6.53905V4.32422H6.92577V4.13086H7.11913V4.32422H7.33007V4.51758H7.50585V8.68359H7.11913V8.89453H6.92577V8.68359H6.71483V8.49023H6.53905V7.875H6.32811V7.29492H6.13475V7.08398H5.34374V6.9082H4.14843V7.08398H3.97264V7.29492H3.76171V8.49023H3.56835V9.47461H3.76171V9.65039H3.56835V10.0547H3.76171V11.25H3.97264V11.4609H4.14843V11.6367H4.76366V11.8477H5.92382V12.041H6.13475V12.6211H5.92382V12.832H5.74804V13.0254H0.791004V12.832H0.404285V12.041H0.615223V11.8477H1.00194V11.6367H1.98632V11.25H2.19725V8.08594H2.37304V7.29492H2.19725V5.71289H2.37304V4.72852H2.19725V1.75781H1.98632V1.54688H1.1953V1.37109H1.00194V1.54688H0.615223V1.37109H0.210926V0.966797H-1.14441e-05V0.755859H0.210926V0.386719H2.19725ZM17.344 11.0039V10.5996H17.5549V9.01758H17.344V8.82422H14.6018V9.01758H13.9865V9.22852H13.5998V9.42188H13.2131V9.63281H13.0022V9.80859H12.8264V10.2129H12.6155V11.0039H12.8264V11.4082H13.2131V11.584H13.5998V11.7949H14.7776V11.9883H14.9885V11.7949H15.9729V11.584H16.3772V11.4082H16.7639V11.1973H17.1682V11.0039H17.344ZM14.9885 4.0957V3.88477H17.7483V4.0957H18.135V4.27148H18.5393V4.46484H18.7502V4.67578H18.9436V4.86914H19.1545V5.25586H19.3303V7.43555H19.1545V11.584H19.9104V11.4082H20.5256V11.584H20.7014V11.7949H20.9123V12.375H20.7014V12.5859H19.9104V12.7793H19.3303V12.9902H17.9592V12.7793H17.7483V12.5859H17.344V12.375H16.9573V12.5859H16.3772V12.7793H15.5686V12.9902H12.8264V12.7793H12.4221V12.5859H12.0354V12.375H11.6311V12.1992H11.4201V11.7949H11.2444V11.4082H11.0334V10.0195H11.2444V9.63281H11.4201V9.22852H11.6311V9.01758H11.8244V8.82422H12.2112V8.61328H12.6155V8.4375H13.0022V8.22656H13.5998V8.0332H14.3908V7.82227H15.5686V7.64648H15.7795V7.82227H16.7639V7.64648H17.344V7.43555H17.5549V7.24219H17.7483V5.66016H17.5549V5.4668H17.344V5.25586H17.1682V5.0625H16.7639V4.86914H15.1819V5.0625H14.7776V5.25586H14.3908V5.4668H14.1975V5.66016H13.9865V6.25781H13.8108V6.45117H13.5998V6.66211H12.6155V6.45117H12.4221V6.25781H12.2112V5.25586H12.4221V4.86914H12.8264V4.67578H13.2131V4.46484H13.5998V4.27148H13.9865V4.0957H14.9885ZM26.7075 4.0957V3.88477H29.2739V4.0957H29.854V4.27148H30.2407V4.46484H30.4516V4.67578H30.645V4.86914H30.8208V5.0625H31.0317V5.4668H31.2251V6.45117H31.436V6.83789H31.2251V7.24219H31.0317V7.43555H30.0649V7.24219H29.6606V6.83789H29.4497V5.66016H29.2739V5.4668H29.063V5.25586H28.4653V5.0625H26.8833V5.25586H26.4966V5.4668H26.0923V5.66016H25.8989V5.87109H25.688V6.04688H25.5122V6.25781H25.3012V6.45117H25.1079V6.83789H24.8969V7.43555H24.7212V9.63281H24.8969V10.2129H25.1079V10.3887H25.3012V10.793H25.5122V11.0039H25.688V11.1973H26.0923V11.4082H26.4966V11.584H27.4985V11.7949H28.6587V11.584H29.854V11.4082H30.2407V11.1973H30.8208V11.0039H31.8403V11.1973H32.0161V11.7949H31.8403V11.9883H31.6294V12.1992H31.2251V12.375H30.645V12.5859H30.2407V12.7793H29.2739V12.9902H28.6587V13.1836H26.3032V12.9902H25.5122V12.7793H24.8969V12.5859H24.7212V12.375H24.5278V12.1992H24.3169V11.9883H24.1411V11.7949H23.9301V11.584H23.7368V11.1973H23.5258V10.793H23.3325V10.2129H23.1216V9.63281H22.9458V8.22656H23.1216V7.04883H23.3325V6.66211H23.5258V6.25781H23.7368V5.87109H23.9301V5.66016H24.1411V5.4668H24.3169V5.25586H24.5278V5.0625H24.7212V4.86914H24.8969V4.67578H25.3012V4.46484H25.5122V4.27148H26.0923V4.0957H26.7075ZM36.2292 2.12695V1.91602H37.0202V2.12695H37.2136V2.53125H37.4245V2.72461H37.2136V3.90234H37.4245V4.11328H38.2155V4.30664H38.6022V4.11328H41.7487V3.90234H41.9597V4.11328H42.153V4.30664H42.364V5.09766H41.9597V5.29102H40.7819V5.09766H40.571V5.29102H37.0202V6.87305H36.8269V11.4258H37.0202V11.6191H37.2136V11.8301H37.4245V12.0234H39.3933V11.8301H40.7819V11.6191H41.362V11.4258H42.364V11.6191H42.7683V12.2168H42.5573V12.4102H42.153V12.6211H41.7487V12.8145H41.1687V13.0254H40.1667V13.2012H38.3913V13.4121H37.4245V13.2012H36.8269V13.0254H36.4401V12.8145H36.0358V12.4102H35.8249V12.2168H35.6491V11.8301H35.4382V7.27734H35.6491V5.50195H35.2448V5.29102H34.2429V5.09766H34.0495V4.51758H34.2429V4.30664H35.4382V4.11328H35.6491V3.72656H35.8249V2.12695H36.2292ZM46.7705 4.30664V4.11328H47.7724V4.30664H47.9482V6.48633H47.7724V10.0547H47.9482V10.6348H48.1591V10.8281H48.3525V11.2148H48.5634V11.4258H48.9501V11.6191H49.5478V11.8301H51.3056V11.6191H51.7099V11.4258H52.29V11.2148H52.5009V11.0391H52.6943V10.8281H52.9052V5.88867H52.6943V5.67773H52.5009V5.50195H51.5166V5.29102H51.3056V4.71094H51.5166V4.51758H52.5009V4.30664H53.4853V4.11328H54.083V4.30664H54.2763V4.88672H54.4873V5.88867H54.2763V11.0391H54.4873V11.2148H54.8916V11.4258H55.8584V11.8301H56.0517V12.2168H55.8584V12.4102H55.0673V12.6211H54.6806V12.8145H54.083V13.0254H53.4853V12.8145H53.081V12.6211H52.9052V12.4102H52.29V12.6211H51.7099V12.8145H51.1298V13.0254H50.1279V13.2012H48.9501V13.0254H48.3525V12.8145H47.9482V12.6211H47.7724V12.4102H47.5615V12.2168H47.1572V11.8301H46.9814V11.6191H46.7705V11.0391H46.5771V9.84375H46.3662V9.65039H46.5771V8.64844H46.3662V8.47266H46.5771V7.48828H46.3662V6.69727H46.5771V6.08203H46.3662V5.67773H46.1728V5.50195H45.206V5.29102H44.9951V5.09766H44.8017V4.88672H44.9951V4.51758H45.3818V4.30664H46.7705ZM65.7844 3.90234V3.72656H66.382V3.90234H67.173V4.11328H67.5773V4.30664H67.7531V4.51758H67.9641V5.50195H67.7531V5.67773H67.5773V5.88867H65.7844V5.67773H65.1867V5.50195H65.0109V5.67773H64.2199V5.88867H63.8156V6.08203H63.4289V6.29297H63.218V6.48633H63.0246V6.69727H62.8137V6.87305H62.6203V7.08398H62.4094V7.27734H62.2336V11.4258H62.4094V11.6191H62.6203V11.8301H65.591V12.0234H65.7844V12.4102H65.9953V12.6211H65.7844V12.8145H65.591V13.0254H63.6047V12.8145H63.4289V13.0254H59.2629V12.8145H59.0871V12.6211H58.8762V12.0234H59.0871V11.8301H60.0539V11.6191H60.4582V11.4258H60.6516V11.0391H60.8625V7.85742H60.6516V7.48828H60.8625V7.27734H60.6516V5.67773H60.4582V5.50195H60.0539V5.29102H59.4562V5.50195H58.4719V5.67773H58.2961V5.29102H58.0851V4.51758H58.2961V4.30664H59.4562V4.11328H60.6516V3.90234H61.6535V4.30664H61.8293V4.51758H62.0402V5.09766H62.2336V5.50195H62.6203V5.29102H63.0246V5.09766H63.218V4.88672H63.4289V4.71094H63.8156V4.51758H64.2199V4.30664H64.6066V4.11328H65.0109V3.90234H65.7844ZM75.7807 11.0039V10.5996H75.9916V9.01758H75.7807V8.82422H73.0385V9.01758H72.4233V9.22852H72.0365V9.42188H71.6498V9.63281H71.4389V9.80859H71.2631V10.2129H71.0522V11.0039H71.2631V11.4082H71.6498V11.584H72.0365V11.7949H73.2143V11.9883H73.4252V11.7949H74.4096V11.584H74.8139V11.4082H75.2006V11.1973H75.6049V11.0039H75.7807ZM73.4252 4.0957V3.88477H76.185V4.0957H76.5717V4.27148H76.976V4.46484H77.1869V4.67578H77.3803V4.86914H77.5912V5.25586H77.767V7.43555H77.5912V11.584H78.3471V11.4082H78.9623V11.584H79.1381V11.7949H79.349V12.375H79.1381V12.5859H78.3471V12.7793H77.767V12.9902H76.3959V12.7793H76.185V12.5859H75.7807V12.375H75.394V12.5859H74.8139V12.7793H74.0053V12.9902H71.2631V12.7793H70.8588V12.5859H70.4721V12.375H70.0678V12.1992H69.8569V11.7949H69.6811V11.4082H69.4701V10.0195H69.6811V9.63281H69.8569V9.22852H70.0678V9.01758H70.2612V8.82422H70.6479V8.61328H71.0522V8.4375H71.4389V8.22656H72.0365V8.0332H72.8276V7.82227H74.0053V7.64648H74.2162V7.82227H75.2006V7.64648H75.7807V7.43555H75.9916V7.24219H76.185V5.66016H75.9916V5.4668H75.7807V5.25586H75.6049V5.0625H75.2006V4.86914H73.6186V5.0625H73.2143V5.25586H72.8276V5.4668H72.6342V5.66016H72.4233V6.25781H72.2475V6.45117H72.0365V6.66211H71.0522V6.45117H70.8588V6.25781H70.6479V5.25586H70.8588V4.86914H71.2631V4.67578H71.6498V4.46484H72.0365V4.27148H72.4233V4.0957H73.4252ZM85.1442 4.0957V3.88477H87.7106V4.0957H88.2907V4.27148H88.6774V4.46484H88.8884V4.67578H89.0817V4.86914H89.2575V5.0625H89.4684V5.4668H89.6618V6.45117H89.8727V6.83789H89.6618V7.24219H89.4684V7.43555H88.5016V7.24219H88.0973V6.83789H87.8864V5.66016H87.7106V5.4668H87.4997V5.25586H86.902V5.0625H85.32V5.25586H84.9333V5.4668H84.529V5.66016H84.3356V5.87109H84.1247V6.04688H83.9489V6.25781H83.738V6.45117H83.5446V6.83789H83.3337V7.43555H83.1579V9.63281H83.3337V10.2129H83.5446V10.3887H83.738V10.793H83.9489V11.0039H84.1247V11.1973H84.529V11.4082H84.9333V11.584H85.9352V11.7949H87.0954V11.584H88.2907V11.4082H88.6774V11.1973H89.2575V11.0039H90.277V11.1973H90.4528V11.7949H90.277V11.9883H90.0661V12.1992H89.6618V12.375H89.0817V12.5859H88.6774V12.7793H87.7106V12.9902H87.0954V13.1836H84.7399V12.9902H83.9489V12.7793H83.3337V12.5859H83.1579V12.375H82.9645V12.1992H82.7536V11.9883H82.5778V11.7949H82.3669V11.584H82.1735V11.1973H81.9626V10.793H81.7692V10.2129H81.5583V9.63281H81.3825V8.22656H81.5583V7.04883H81.7692V6.66211H81.9626V6.25781H82.1735V5.87109H82.3669V5.66016H82.5778V5.4668H82.7536V5.25586H82.9645V5.0625H83.1579V4.86914H83.3337V4.67578H83.738V4.46484H83.9489V4.27148H84.529V4.0957H85.1442ZM96.248 0.193359V0H97.2323V0.193359H97.619V0.404297H97.83V0.580078H98.0233V1.77539H97.83V1.96875H97.619V2.17969H97.4433V2.35547H97.2323V2.56641H96.828V2.75977H96.248V2.56641H95.6679V2.35547H95.4569V2.17969H95.2636V0.984375H95.4569V0.580078H95.6679V0.404297H95.8437V0.193359H96.248ZM96.0546 4.16602V3.95508H96.828V4.16602H97.2323V4.74609H97.4433V5.32617H97.2323V11.4785H97.4433V11.6543H97.83V11.8652H100.976V12.0586H101.381V12.8496H101.187V13.0605H100.801V13.2539H99.7987V13.0605H93.4706V13.2539H93.1015V13.0605H92.6972V12.6562H92.4862V12.4453H92.6972V12.0586H92.8905V11.8652H94.8769V11.6543H95.2636V11.4785H95.6679V5.53711H95.0526V5.32617H93.6815V5.53711H92.8905V5.32617H92.6972V5.13281H92.4862V4.55273H92.6972V4.3418H94.2616V4.16602H96.0546ZM111.113 9.87891V9.08789H111.324V8.10352H111.113V7.3125H110.92V6.9082H110.709V6.73242H110.533V6.11719H110.34V5.94141H110.129V5.73047H109.953V5.53711H109.549V5.32617H109.145V5.13281H106.772V5.32617H106.367V5.53711H106.192V5.73047H105.981V5.94141H105.787V6.11719H105.576V6.52148H105.401V7.11914H105.19V7.89258H104.996V9.29883H105.19V10.0898H105.401V10.2832H105.576V10.6699H105.787V10.8633H105.981V11.0742H106.192V11.2676H106.367V11.4785H106.578V11.6543H106.983V11.8652H107.563V12.0586H108.758V11.8652H109.338V11.6543H109.742V11.4785H110.129V11.2676H110.34V11.0742H110.533V10.6699H110.709V10.2832H110.92V9.87891H111.113ZM107.387 3.95508V3.76172H108.758V3.95508H109.742V4.16602H110.34V4.3418H110.92V4.55273H111.113V4.74609H111.324V4.92188H111.5V5.13281H111.711V5.32617H111.904V5.73047H112.115V5.94141H112.309V6.32812H112.52V6.73242H112.695V7.7168H112.906V9.08789H112.695V9.70312H112.52V10.6699H112.309V11.0742H112.115V11.2676H111.904V11.4785H111.711V11.6543H111.5V11.8652H111.324V12.0586H110.92V12.2695H110.709V12.4453H110.533V12.6562H110.129V12.8496H109.742V13.0605H108.934V13.2539H106.983V13.0605H106.367V12.8496H105.787V12.6562H105.401V12.4453H105.19V12.2695H104.785V12.0586H104.61V11.8652H104.416V11.6543H104.205V11.2676H104.012V10.8633H103.801V10.2832H103.625V9.87891H103.414V7.3125H103.625V6.73242H103.801V6.32812H104.012V5.94141H104.205V5.73047H104.416V5.32617H104.61V5.13281H104.996V4.92188H105.19V4.74609H105.401V4.55273H105.787V4.3418H106.192V4.16602H106.578V3.95508H107.387ZM107.844 1.96875L107.756 1.82812L108.723 1.26562L108.811 1.40625L110.147 0.615234L110.076 0.474609L110.832 0.0351562L110.902 0.175781L111.008 0.105469L111.078 0.228516L111.184 0.175781L111.553 0.84375L111.465 0.896484L111.623 1.16016L111.236 1.38867L111.324 1.5293L108.354 3.26953L108.283 3.12891L108.178 3.18164L108.108 3.05859L108.002 3.11133L107.545 2.32031L107.633 2.26758L107.563 2.14453L107.844 1.96875ZM120.864 4.16602V3.95508H122.639V4.16602H122.85V4.3418H123.219V4.55273H123.623V4.74609H123.834V4.92188H124.01V5.13281H124.221V5.53711H124.414V6.11719H124.625V11.6543H124.819V11.8652H125.821V12.0586H126.19V13.0605H125.821V13.2539H124.221V13.0605H122.252V12.6562H122.059V12.4453H122.252V12.2695H122.463V12.0586H122.639V11.8652H122.85V11.6543H123.043V9.29883H123.219V7.52344H123.043V6.52148H122.85V6.11719H122.639V5.94141H122.463V5.73047H122.252V5.53711H121.848V5.32617H120.477V5.53711H120.073V5.73047H119.493V5.94141H119.088V6.11719H118.491V6.52148H118.297V8.29688H118.086V10.4941H118.297V11.6543H118.491V11.8652H119.493V12.0586H119.897V12.2695H120.073V12.4453H120.266V12.6562H120.073V12.8496H119.897V13.0605H116.135V12.8496H115.924V12.6562H115.731V12.4453H115.924V12.0586H116.135V11.8652H116.522V11.6543H116.715V5.73047H116.522V5.53711H115.133V5.32617H114.94V4.74609H115.133V4.55273H115.52V4.3418H116.522V4.16602H117.7V4.3418H117.911V4.55273H118.086V4.92188H118.877V4.74609H119.088V4.55273H119.493V4.3418H120.266V4.16602H120.864Z" fill="white"/>
</svg>
