<svg width="244" height="50" viewBox="0 0 244 50" fill="none" xmlns="http://www.w3.org/2000/svg">
<path d="M27.222 11.388C27.014 11.336 26.832 11.31 26.676 11.31C26.468 11.31 26.26 11.388 26.052 11.544C25.87 11.674 25.701 11.83 25.545 12.012C25.363 12.22 25.194 12.441 25.038 12.675C22.308 13.455 20.605 13.845 19.929 13.845C19.279 13.845 18.707 13.767 18.213 13.611C18.187 13.689 18.174 13.832 18.174 14.04C18.174 13.936 18.33 14.521 18.642 15.795C19.058 16.263 19.5 16.497 19.968 16.497C20.332 16.497 20.904 16.302 21.684 15.912C22.412 15.522 22.997 15.327 23.439 15.327C23.517 15.327 23.595 15.34 23.673 15.366C23.777 15.366 23.868 15.366 23.946 15.366C24.284 15.08 24.622 14.794 24.96 14.508C25.298 14.222 25.636 13.923 25.974 13.611C26.676 12.935 27.092 12.194 27.222 11.388ZM28.119 7.99499C28.119 7.73499 28.08 7.26699 28.002 6.59099C27.924 5.96699 27.885 5.49899 27.885 5.18699V4.99199C26.767 3.87399 25.987 3.31499 25.545 3.31499C25.415 3.31499 25.246 3.34099 25.038 3.39299C23.556 3.70499 22.23 4.64099 21.06 6.20099C20.098 7.50099 19.422 8.91799 19.032 10.452C19.396 11.128 19.877 11.596 20.475 11.856C21.073 12.09 21.593 12.207 22.035 12.207C22.295 12.207 22.542 12.129 22.776 11.973C23.036 11.817 23.283 11.635 23.517 11.427C23.751 11.219 23.972 11.011 24.18 10.803C24.388 10.595 24.596 10.426 24.804 10.296C25.428 9.69799 26 9.39899 26.52 9.39899C26.962 9.39899 27.339 9.54199 27.651 9.82799C27.963 9.35999 28.119 8.74899 28.119 7.99499ZM30.81 8.54099C30.81 9.00899 30.706 9.51599 30.498 10.062C29.51 12.974 27.17 15.704 23.478 18.252C22.1 18.564 20.995 18.72 20.163 18.72C18.993 18.72 17.966 18.486 17.082 18.018C16.796 17.836 16.549 17.498 16.341 17.004C16.289 16.874 16.237 16.679 16.185 16.419C16.133 16.159 16.081 15.899 16.029 15.639C16.003 15.353 15.964 15.106 15.912 14.898C15.86 14.664 15.808 14.521 15.756 14.469C15.288 15.223 14.755 16.146 14.157 17.238C13.559 18.304 12.883 19.487 12.129 20.787C11.401 22.087 10.608 23.465 9.75 24.921C8.892 26.351 7.956 27.807 6.942 29.289L4.953 29.484C4.901 29.276 4.875 29.094 4.875 28.938C4.875 28.444 5.187 27.768 5.811 26.91C6.435 26.052 6.799 25.441 6.903 25.077C7.033 24.713 7.449 24.193 8.151 23.517C8.853 22.867 9.204 22.256 9.204 21.684C9.204 21.606 9.204 21.515 9.204 21.411C9.204 21.307 9.178 21.203 9.126 21.099C9.854 20.657 10.413 19.747 10.803 18.369C11.219 16.965 11.765 16.029 12.441 15.561C12.649 15.223 12.857 14.846 13.065 14.43C13.273 13.988 13.468 13.507 13.65 12.987C13.832 12.545 14.196 11.921 14.742 11.115C15.314 10.283 15.886 9.41199 16.458 8.50199C15.366 9.12599 14.261 9.71099 13.143 10.257C12.051 10.803 10.998 11.336 9.984 11.856C7.904 12.87 6.292 13.377 5.148 13.377H4.836C4.732 13.351 4.615 13.338 4.485 13.338C4.121 13.338 3.614 13.416 2.964 13.572C2.34 13.754 1.872 13.845 1.56 13.845C0.883997 13.845 0.389997 13.455 0.0779971 12.675C0.0259971 12.519 -2.92598e-06 12.402 -2.92598e-06 12.324C-2.92598e-06 12.064 0.220997 11.869 0.662997 11.739C1.209 11.583 1.521 11.466 1.599 11.388C1.807 11.414 2.002 11.44 2.184 11.466C2.392 11.466 2.6 11.466 2.808 11.466C6.136 11.466 9.412 10.27 12.636 7.87799C13.052 7.56599 13.533 7.25399 14.079 6.94199C14.651 6.60399 15.275 6.17499 15.951 5.65499C16.627 5.13499 17.342 4.47199 18.096 3.66599C18.85 2.83399 19.617 1.79399 20.397 0.545987C20.709 0.337986 20.943 0.272986 21.099 0.350987C21.281 0.402988 21.424 0.506988 21.528 0.662987C21.658 0.818987 21.775 0.987987 21.879 1.16999C21.983 1.32599 22.126 1.40399 22.308 1.40399C22.672 1.40399 23.244 1.28699 24.024 1.05299C24.44 0.948987 24.791 0.870987 25.077 0.818988C25.363 0.766987 25.61 0.740986 25.818 0.740986C26.078 0.740986 26.273 0.753986 26.403 0.779986H26.52C27.17 0.779986 27.742 1.10499 28.236 1.75499C29.042 2.84699 29.445 3.39299 29.445 3.39299C29.471 3.80899 29.731 4.66699 30.225 5.96699C30.615 7.03299 30.81 7.89099 30.81 8.54099ZM39.6779 15.444C39.6779 15.158 39.6129 14.898 39.4829 14.664C39.1449 14.378 38.6509 14.235 38.0009 14.235C37.7929 14.235 37.5589 14.287 37.2989 14.391C37.0649 14.469 36.7659 14.586 36.4019 14.742C35.9339 14.976 35.5699 15.158 35.3099 15.288C35.0759 15.418 34.9329 15.496 34.8809 15.522C34.2309 16.302 33.1779 17.264 31.7219 18.408C31.5399 18.928 31.3579 19.422 31.1759 19.89C30.9939 20.358 30.8249 20.852 30.6689 21.372C30.4609 21.97 30.3049 22.516 30.2009 23.01C30.1229 23.504 30.0839 23.972 30.0839 24.414C30.0839 25.87 30.5519 26.598 31.4879 26.598C31.5139 26.598 31.6049 26.598 31.7609 26.598C31.9169 26.598 32.1379 26.624 32.4239 26.676C32.7879 26.754 33.0739 26.728 33.2819 26.598C35.2059 25.74 36.3759 24.869 36.7919 23.985C36.9739 23.569 37.1949 23.01 37.4549 22.308C37.7409 21.58 38.0659 20.683 38.4299 19.617C38.4039 19.591 38.3909 19.526 38.3909 19.422C38.3909 18.902 38.5989 18.213 39.0149 17.355C39.4569 16.497 39.6779 15.86 39.6779 15.444ZM51.1829 19.422C51.1829 20.176 50.8449 21.242 50.1689 22.62C49.3109 24.414 47.9979 26.026 46.2299 27.456C44.3839 28.652 42.6679 29.25 41.0819 29.25C40.1719 29.25 39.3659 29.016 38.6639 28.548C38.2219 27.404 37.6889 26.832 37.0649 26.832C36.6749 26.832 36.0769 27.092 35.2709 27.612C34.3349 28.288 33.7499 28.678 33.5159 28.782C32.5019 28.886 31.7609 28.964 31.2929 29.016C30.8509 29.068 30.6819 29.094 30.7859 29.094C29.4079 29.094 28.5239 28.418 28.1339 27.066C28.0819 26.624 28.0299 26.195 27.9779 25.779C27.9519 25.363 27.9389 24.934 27.9389 24.492C27.9389 19.682 29.5769 16.185 32.8529 14.001C33.2689 13.793 33.6719 13.585 34.0619 13.377C34.4779 13.169 34.9069 12.961 35.3489 12.753C36.3109 12.285 37.1429 12.051 37.8449 12.051C39.5609 12.051 40.7179 12.675 41.3159 13.923C42.0699 13.975 42.4469 14.547 42.4469 15.639C42.4469 16.029 42.3819 16.458 42.2519 16.926C41.4719 17.94 40.8349 19.162 40.3409 20.592C39.7689 22.152 39.4829 23.582 39.4829 24.882V25.389C39.6389 26.039 40.0679 26.416 40.7699 26.52C41.0559 26.572 41.3419 26.624 41.6279 26.676C41.9139 26.702 42.1999 26.741 42.4859 26.793C43.2399 26.637 43.9289 26.377 44.5529 26.013C45.2029 25.649 45.8139 25.207 46.3859 24.687C46.5159 24.557 46.6719 24.362 46.8539 24.102C47.0359 23.842 47.2309 23.504 47.4389 23.088C47.8549 22.36 48.2189 21.905 48.5309 21.723C48.7129 21.619 48.9469 21.19 49.2329 20.436C49.4669 19.76 49.7009 19.422 49.9349 19.422C49.9349 19.422 50.0779 19.266 50.3639 18.954C50.5979 18.642 50.8059 18.642 50.9879 18.954C51.0399 19.032 51.0659 19.097 51.0659 19.149C51.0919 19.201 51.1179 19.253 51.1439 19.305C51.1699 19.357 51.1829 19.396 51.1829 19.422ZM69.6778 21.723C69.6778 22.321 69.2618 22.88 68.4298 23.4C67.3638 24.102 66.7658 24.622 66.6358 24.96C66.1158 25.012 65.6608 25.246 65.2708 25.662C65.0628 25.87 64.8548 26.078 64.6468 26.286C64.4648 26.494 64.2698 26.702 64.0618 26.91C60.7858 28.392 57.9908 29.133 55.6768 29.133C53.6748 29.133 51.9198 28.613 50.4118 27.573C49.1118 26.663 48.4618 24.843 48.4618 22.113V21.372V20.67V20.241C48.5138 20.163 48.5918 19.994 48.6958 19.734C48.7998 19.448 48.9168 19.123 49.0468 18.759C49.1768 18.395 49.3198 18.005 49.4758 17.589C49.6578 17.147 49.8528 16.731 50.0608 16.341C50.2168 16.055 50.4508 15.704 50.7628 15.288C51.1008 14.846 51.4778 14.404 51.8938 13.962C52.3358 13.494 52.7908 13.052 53.2588 12.636C53.7528 12.194 54.2078 11.843 54.6238 11.583C55.1178 11.297 55.6118 11.115 56.1058 11.037C56.6258 10.933 57.0548 10.881 57.3928 10.881C57.7308 10.881 58.0948 11.037 58.4848 11.349C58.8748 11.661 59.2518 12.038 59.6158 12.48C59.9798 12.922 60.3178 13.377 60.6298 13.845C60.9418 14.287 61.1758 14.651 61.3318 14.937C61.3058 15.015 61.2928 15.132 61.2928 15.288C61.2928 15.47 61.3448 15.665 61.4488 15.873C61.5528 16.081 61.6048 16.25 61.6048 16.38C61.6048 16.432 61.5788 16.536 61.5268 16.692C61.1628 16.926 60.8508 17.043 60.5908 17.043C60.1748 17.043 59.7198 16.705 59.2258 16.029C59.0958 15.873 58.9918 15.678 58.9138 15.444C58.8618 15.184 58.8098 14.937 58.7578 14.703C58.7058 14.469 58.6408 14.274 58.5628 14.118C58.5108 13.962 58.4328 13.884 58.3288 13.884C57.8088 13.884 57.3148 13.845 56.8468 13.767C56.3788 13.663 56.0798 13.598 55.9498 13.572C55.8718 13.572 55.7288 13.65 55.5208 13.806C55.3388 13.936 55.1048 14.131 54.8188 14.391C54.5588 14.625 54.2858 14.885 53.9998 15.171C53.7138 15.457 53.4538 15.73 53.2198 15.99C53.1678 16.042 53.0768 16.198 52.9468 16.458C52.8428 16.692 52.7128 16.978 52.5568 17.316C52.4008 17.628 52.2188 17.966 52.0108 18.33C51.8028 18.668 51.5688 18.993 51.3088 19.305C50.8408 21.385 50.6068 22.737 50.6068 23.361C50.6068 24.167 50.7628 24.778 51.0748 25.194C52.5308 26.468 54.3248 27.105 56.4568 27.105C57.4188 27.105 58.4978 26.78 59.6938 26.13C61.2278 25.324 62.2418 24.869 62.7358 24.765C63.0218 24.479 63.3728 24.167 63.7888 23.829C64.2308 23.465 64.7508 23.062 65.3488 22.62C66.5708 21.736 67.4288 20.982 67.9228 20.358C68.3388 20.358 68.7418 20.488 69.1318 20.748C69.4958 20.982 69.6778 21.307 69.6778 21.723ZM77.2502 24.453C76.8602 24.349 76.4442 24.206 76.0022 24.024C75.5602 23.816 75.1312 23.595 74.7152 23.361C74.2992 23.101 73.9352 22.815 73.6232 22.503C73.3112 22.165 73.0772 21.801 72.9212 21.411C72.8172 20.605 72.6742 19.89 72.4922 19.266C72.3102 18.642 72.0762 18.33 71.7902 18.33C71.5562 18.33 71.3092 18.577 71.0492 19.071C70.8152 19.539 70.5682 20.033 70.3082 20.553C69.7622 21.619 69.4892 22.555 69.4892 23.361C69.4892 23.595 69.5282 23.79 69.6062 23.946C69.6582 23.998 69.7492 24.154 69.8792 24.414C70.0092 24.674 70.1782 25.038 70.3862 25.506C70.6982 26.208 71.1532 26.559 71.7512 26.559C72.0892 26.637 72.4272 26.676 72.7652 26.676C73.4412 26.676 74.1562 26.533 74.9102 26.247C75.6642 25.961 76.4442 25.363 77.2502 24.453ZM78.6542 19.617C78.6542 18.915 78.5242 18.265 78.2642 17.667C78.0042 17.277 77.7052 16.913 77.3672 16.575C77.0292 16.211 76.6392 16.029 76.1972 16.029C76.0412 16.029 75.8072 16.12 75.4952 16.302C75.1832 16.484 74.9622 16.614 74.8322 16.692C74.4942 16.822 74.3252 17.056 74.3252 17.394C74.3252 17.706 74.3252 18.109 74.3252 18.603V18.954V19.344V19.617C74.8452 20.527 75.4172 21.216 76.0412 21.684C76.6912 22.126 77.2502 22.347 77.7182 22.347C77.7962 22.347 77.8742 22.347 77.9522 22.347C78.0302 22.321 78.1082 22.308 78.1862 22.308C78.2642 21.84 78.3552 21.333 78.4592 20.787C78.5892 20.215 78.6542 19.825 78.6542 19.617ZM90.0812 21.06C90.0812 21.034 90.0032 21.125 89.8472 21.333C89.6912 21.515 89.5092 21.762 89.3012 22.074C89.0932 22.386 88.8722 22.724 88.6382 23.088C88.4302 23.426 88.2742 23.725 88.1702 23.985C86.7142 25.311 84.8162 25.974 82.4762 25.974C81.7482 25.974 81.0722 25.935 80.4482 25.857C79.8242 25.753 79.3302 25.519 78.9662 25.155C78.6022 25.675 78.3292 26.052 78.1472 26.286C77.9912 26.52 77.8352 26.702 77.6792 26.832C77.1592 27.274 76.2362 27.69 74.9102 28.08C74.3902 28.496 73.7532 28.704 72.9992 28.704C72.8952 28.704 72.2062 28.626 70.9322 28.47C69.8922 28.21 69.0602 27.534 68.4362 26.442C67.8642 25.532 67.5782 24.479 67.5782 23.283C67.5782 21.281 68.2802 19.396 69.6842 17.628C70.9322 16.042 72.5182 14.807 74.4422 13.923C74.9102 13.585 75.2872 13.416 75.5732 13.416C76.0412 13.416 76.6262 13.676 77.3282 14.196C78.1082 14.742 78.6802 15.054 79.0442 15.132C79.9542 16.406 80.4092 17.29 80.4092 17.784V17.901C80.6952 19.175 80.8382 19.903 80.8382 20.085C80.8382 20.137 80.7732 20.358 80.6432 20.748C80.5132 21.138 80.3832 21.554 80.2532 21.996C80.1492 22.438 80.0712 22.776 80.0192 23.01C79.9672 23.218 79.9412 23.335 79.9412 23.361C79.9672 23.361 80.2792 23.556 80.8772 23.946C81.1632 24.128 81.4232 24.193 81.6572 24.141C81.8912 24.063 82.0212 24.024 82.0472 24.024C82.3072 24.024 82.5542 24.05 82.7882 24.102C83.0222 24.154 83.2432 24.154 83.4512 24.102C83.8412 24.024 84.3742 23.985 85.0502 23.985C85.2582 23.855 85.4662 23.725 85.6742 23.595C85.9082 23.439 86.1422 23.296 86.3762 23.166C86.6882 22.984 86.9872 22.724 87.2732 22.386C87.5592 22.048 87.8192 21.71 88.0532 21.372C88.3132 21.034 88.5342 20.748 88.7162 20.514C88.9242 20.254 89.1062 20.111 89.2622 20.085C89.2622 20.241 89.3922 20.41 89.6522 20.592C89.9382 20.748 90.0812 20.904 90.0812 21.06ZM120.974 31.668C120.974 31.59 120.961 31.512 120.935 31.434C120.935 31.356 120.935 31.278 120.935 31.2C120.259 31.668 119.401 32.487 118.361 33.657C117.295 34.879 116.411 35.711 115.709 36.153C115.085 37.349 114.578 38.35 114.188 39.156C113.798 39.988 113.499 40.625 113.291 41.067C112.485 42.939 112.082 44.642 112.082 46.176C112.394 46.28 112.901 46.332 113.603 46.332H114.422C114.604 46.332 114.747 46.319 114.851 46.293C114.955 46.293 115.033 46.293 115.085 46.293C115.449 45.825 115.878 45.214 116.372 44.46C116.892 43.706 117.477 42.809 118.127 41.769C118.309 40.261 118.803 38.688 119.609 37.05V36.738C119.609 36.114 119.83 35.256 120.272 34.164C120.74 33.072 120.974 32.24 120.974 31.668ZM134.546 20.67C134.546 20.748 134.325 21.086 133.883 21.684H133.649C132.947 21.684 131.959 22.152 130.685 23.088C129.333 24.102 128.384 24.648 127.838 24.726C125.108 26.494 123.743 28.535 123.743 30.849V31.434C123.691 31.642 123.613 31.902 123.509 32.214C123.431 32.5 123.34 32.838 123.236 33.228C123.132 33.644 123.015 34.112 122.885 34.632C122.521 35.984 122.079 36.998 121.559 37.674C121.325 38.506 121.091 39.325 120.857 40.131C120.649 40.937 120.415 41.743 120.155 42.549C119.869 43.563 119.531 44.434 119.141 45.162C118.777 45.916 118.387 46.54 117.971 47.034C116.827 48.412 115.358 49.179 113.564 49.335C113.2 49.179 112.888 49.036 112.628 48.906C112.394 48.776 112.186 48.672 112.004 48.594C111.796 48.49 111.627 48.412 111.497 48.36C110.717 47.944 110.119 47.424 109.703 46.8C109.703 45.942 109.807 45.006 110.015 43.992C110.223 43.004 110.561 41.964 111.029 40.872C111.445 39.936 111.861 39 112.277 38.064C112.719 37.154 113.148 36.231 113.564 35.295C113.616 35.269 114.903 33.761 117.425 30.771C118.933 28.951 120.376 27.651 121.754 26.871C122.404 26.195 122.846 24.96 123.08 23.166H123.041C122.547 23.166 122.105 23.439 121.715 23.985C121.507 24.245 121.325 24.505 121.169 24.765C121.013 25.025 120.857 25.298 120.701 25.584C119.609 26.364 118.452 26.793 117.23 26.871C117.1 27.313 116.788 27.586 116.294 27.69C115.644 27.794 115.241 27.95 115.085 28.158C114.773 27.872 114.383 27.729 113.915 27.729H113.369C113.239 27.755 113.122 27.768 113.018 27.768C112.94 27.768 112.875 27.768 112.823 27.768C112.563 27.768 112.381 27.755 112.277 27.729C110.977 26.949 110.327 25.61 110.327 23.712C110.327 23.296 110.366 22.672 110.444 21.84C110.47 21.424 110.483 21.073 110.483 20.787C110.509 20.501 110.522 20.254 110.522 20.046V19.539C110.73 18.993 110.912 18.447 111.068 17.901C111.25 17.329 111.445 16.77 111.653 16.224C112.069 15.002 112.563 13.936 113.135 13.026V12.714C113.135 12.168 113.395 11.375 113.915 10.335C114.435 9.29499 114.695 8.54099 114.695 8.07299C114.695 7.52699 114.461 6.94199 113.993 6.31799C113.785 5.82399 113.486 5.31699 113.096 4.79699C112.706 4.27699 112.212 3.71799 111.614 3.11999H111.497C110.847 3.11999 110.236 3.18499 109.664 3.31499C109.118 3.44499 108.611 3.66599 108.143 3.97799C107.103 4.70599 106.583 5.62899 106.583 6.74699C106.583 7.26699 106.791 7.73499 107.207 8.15099C107.571 8.48899 107.987 8.65799 108.455 8.65799C109.027 8.65799 109.742 8.34599 110.6 7.72199C111.458 7.09799 111.978 6.78599 112.16 6.78599C112.498 6.78599 112.667 7.25399 112.667 8.18999V8.50199C111.575 10.114 110.197 10.92 108.533 10.92C107.649 10.92 106.375 10.192 104.711 8.73599C104.477 7.79999 104.36 7.04599 104.36 6.47399C104.36 5.51199 104.685 4.74499 105.335 4.17299C105.699 3.99099 106.661 3.34099 108.221 2.22299C109.443 1.31299 110.457 0.857987 111.263 0.857987C112.095 0.857987 112.862 1.24799 113.564 2.02799L115.943 5.49899C115.917 5.57699 115.891 5.65499 115.865 5.73299C115.865 5.78499 115.865 5.84999 115.865 5.92799C115.865 6.10999 116.008 6.36999 116.294 6.70799C116.528 6.99399 116.697 7.22799 116.801 7.40999C116.801 7.95599 116.554 8.64499 116.06 9.47699C115.566 10.309 115.319 11.024 115.319 11.622V11.934C115.241 12.246 115.15 12.558 115.046 12.87C114.968 13.156 114.903 13.442 114.851 13.728C114.643 14.508 114.357 15.067 113.993 15.405C113.005 17.797 112.511 20.098 112.511 22.308C112.511 23.478 112.641 24.57 112.901 25.584C113.083 25.61 113.252 25.636 113.408 25.662C113.59 25.662 113.759 25.662 113.915 25.662C117.191 25.662 120.025 23.478 122.417 19.11C122.859 18.85 123.275 18.356 123.665 17.628C123.873 17.264 124.068 16.952 124.25 16.692C124.432 16.406 124.614 16.198 124.796 16.068C125.212 15.184 125.628 14.313 126.044 13.455C126.46 12.597 126.876 11.726 127.292 10.842C127.916 9.46399 128.436 8.18999 128.852 7.01999C129.268 5.82399 129.606 4.70599 129.866 3.66599C130.074 3.40599 130.347 2.71699 130.685 1.59899C130.945 0.792986 131.465 0.389986 132.245 0.389986C132.375 0.129986 132.557 -1.3411e-05 132.791 -1.3411e-05C132.947 -1.3411e-05 133.129 0.0649865 133.337 0.194986C133.415 0.428986 133.48 0.675986 133.532 0.935986C133.584 1.16999 133.61 1.42999 133.61 1.71599C133.61 2.52199 133.363 3.47099 132.869 4.56299C132.661 5.00499 132.44 5.45999 132.206 5.92799C131.998 6.39599 131.79 6.86399 131.582 7.33199C130.048 9.74999 128.631 12.805 127.331 16.497C126.265 19.513 125.641 21.736 125.459 23.166C125.511 23.166 125.563 23.153 125.615 23.127C125.641 23.075 125.68 23.049 125.732 23.049C126.486 23.049 127.643 22.373 129.203 21.021C130.737 19.643 131.959 18.954 132.869 18.954C133.103 18.954 133.363 18.993 133.649 19.071C134.247 19.305 134.546 19.643 134.546 20.085C134.546 20.137 134.533 20.189 134.507 20.241C134.507 20.267 134.507 20.306 134.507 20.358C134.507 20.41 134.507 20.462 134.507 20.514C134.533 20.566 134.546 20.618 134.546 20.67ZM143.71 24.453C143.32 24.349 142.904 24.206 142.462 24.024C142.02 23.816 141.591 23.595 141.175 23.361C140.759 23.101 140.395 22.815 140.083 22.503C139.771 22.165 139.537 21.801 139.381 21.411C139.277 20.605 139.134 19.89 138.952 19.266C138.77 18.642 138.536 18.33 138.25 18.33C138.016 18.33 137.769 18.577 137.509 19.071C137.275 19.539 137.028 20.033 136.768 20.553C136.222 21.619 135.949 22.555 135.949 23.361C135.949 23.595 135.988 23.79 136.066 23.946C136.118 23.998 136.209 24.154 136.339 24.414C136.469 24.674 136.638 25.038 136.846 25.506C137.158 26.208 137.613 26.559 138.211 26.559C138.549 26.637 138.887 26.676 139.225 26.676C139.901 26.676 140.616 26.533 141.37 26.247C142.124 25.961 142.904 25.363 143.71 24.453ZM145.114 19.617C145.114 18.915 144.984 18.265 144.724 17.667C144.464 17.277 144.165 16.913 143.827 16.575C143.489 16.211 143.099 16.029 142.657 16.029C142.501 16.029 142.267 16.12 141.955 16.302C141.643 16.484 141.422 16.614 141.292 16.692C140.954 16.822 140.785 17.056 140.785 17.394C140.785 17.706 140.785 18.109 140.785 18.603V18.954V19.344V19.617C141.305 20.527 141.877 21.216 142.501 21.684C143.151 22.126 143.71 22.347 144.178 22.347C144.256 22.347 144.334 22.347 144.412 22.347C144.49 22.321 144.568 22.308 144.646 22.308C144.724 21.84 144.815 21.333 144.919 20.787C145.049 20.215 145.114 19.825 145.114 19.617ZM156.541 21.06C156.541 21.034 156.463 21.125 156.307 21.333C156.151 21.515 155.969 21.762 155.761 22.074C155.553 22.386 155.332 22.724 155.098 23.088C154.89 23.426 154.734 23.725 154.63 23.985C153.174 25.311 151.276 25.974 148.936 25.974C148.208 25.974 147.532 25.935 146.908 25.857C146.284 25.753 145.79 25.519 145.426 25.155C145.062 25.675 144.789 26.052 144.607 26.286C144.451 26.52 144.295 26.702 144.139 26.832C143.619 27.274 142.696 27.69 141.37 28.08C140.85 28.496 140.213 28.704 139.459 28.704C139.355 28.704 138.666 28.626 137.392 28.47C136.352 28.21 135.52 27.534 134.896 26.442C134.324 25.532 134.038 24.479 134.038 23.283C134.038 21.281 134.74 19.396 136.144 17.628C137.392 16.042 138.978 14.807 140.902 13.923C141.37 13.585 141.747 13.416 142.033 13.416C142.501 13.416 143.086 13.676 143.788 14.196C144.568 14.742 145.14 15.054 145.504 15.132C146.414 16.406 146.869 17.29 146.869 17.784V17.901C147.155 19.175 147.298 19.903 147.298 20.085C147.298 20.137 147.233 20.358 147.103 20.748C146.973 21.138 146.843 21.554 146.713 21.996C146.609 22.438 146.531 22.776 146.479 23.01C146.427 23.218 146.401 23.335 146.401 23.361C146.427 23.361 146.739 23.556 147.337 23.946C147.623 24.128 147.883 24.193 148.117 24.141C148.351 24.063 148.481 24.024 148.507 24.024C148.767 24.024 149.014 24.05 149.248 24.102C149.482 24.154 149.703 24.154 149.911 24.102C150.301 24.024 150.834 23.985 151.51 23.985C151.718 23.855 151.926 23.725 152.134 23.595C152.368 23.439 152.602 23.296 152.836 23.166C153.148 22.984 153.447 22.724 153.733 22.386C154.019 22.048 154.279 21.71 154.513 21.372C154.773 21.034 154.994 20.748 155.176 20.514C155.384 20.254 155.566 20.111 155.722 20.085C155.722 20.241 155.852 20.41 156.112 20.592C156.398 20.748 156.541 20.904 156.541 21.06ZM180.211 21.138C180.237 21.268 180.211 21.463 180.133 21.723C180.081 21.957 179.99 22.217 179.86 22.503C179.756 22.789 179.626 23.075 179.47 23.361C179.34 23.621 179.21 23.855 179.08 24.063C178.17 25.675 177.078 27.118 175.804 28.392H175.726C175.57 28.392 175.245 28.587 174.751 28.977C174.361 29.289 173.854 29.445 173.23 29.445C172.918 29.445 172.489 29.406 171.943 29.328C171.423 29.224 171.033 29.172 170.773 29.172C169.707 29.172 168.849 28.379 168.199 26.793V26.52C168.199 24.986 168.368 23.569 168.706 22.269C169.044 20.943 169.59 19.708 170.344 18.564C170.37 18.512 170.409 18.395 170.461 18.213C170.539 18.005 170.656 17.745 170.812 17.433C170.942 17.173 171.033 16.952 171.085 16.77C171.163 16.562 171.202 16.38 171.202 16.224C171.202 15.99 171.137 15.782 171.007 15.6C170.565 15.34 170.123 15.21 169.681 15.21C169.317 15.21 168.615 15.626 167.575 16.458C167.237 16.718 166.899 16.978 166.561 17.238C166.249 17.498 165.924 17.758 165.586 18.018C165.248 18.85 164.624 20.046 163.714 21.606C163.246 22.386 162.817 23.153 162.427 23.907C162.063 24.661 161.725 25.376 161.413 26.052C161.205 26.52 160.88 27.092 160.438 27.768C159.996 28.444 159.476 29.237 158.878 30.147C158.046 29.809 157.63 29.354 157.63 28.782C157.63 28.47 157.721 28.093 157.903 27.651C158.033 27.417 158.124 27.222 158.176 27.066C158.228 26.884 158.28 26.728 158.332 26.598C158.358 26.39 158.709 25.779 159.385 24.765C159.879 24.037 160.126 23.387 160.126 22.815V22.698C160.464 22.074 160.789 21.45 161.101 20.826C161.439 20.176 161.777 19.539 162.115 18.915C162.843 17.407 163.233 16.094 163.285 14.976C163.181 14.872 163.025 14.82 162.817 14.82C162.583 14.82 162.258 14.872 161.842 14.976C161.634 15.054 161.452 15.106 161.296 15.132C161.14 15.158 161.023 15.171 160.945 15.171C159.905 15.249 158.332 16.887 156.226 20.085C156.07 20.423 155.862 20.839 155.602 21.333C155.342 21.801 155.056 22.373 154.744 23.049C154.588 23.413 154.432 23.79 154.276 24.18C154.12 24.57 153.964 24.96 153.808 25.35C153.496 26.13 153.002 26.52 152.326 26.52C152.092 26.52 151.884 26.403 151.702 26.169C151.494 25.961 151.39 25.74 151.39 25.506C151.39 25.402 151.611 24.986 152.053 24.258C152.339 23.816 152.586 23.426 152.794 23.088C152.976 22.724 153.132 22.425 153.262 22.191C153.444 21.697 153.626 21.203 153.808 20.709C154.016 20.189 154.224 19.643 154.432 19.071C154.718 18.655 154.978 18.252 155.212 17.862C155.472 17.446 155.745 17.03 156.031 16.614C156.395 16.12 156.733 15.782 157.045 15.6C157.383 15.418 157.669 15.262 157.903 15.132C158.059 15.028 158.215 14.885 158.371 14.703C158.553 14.521 158.722 14.326 158.878 14.118C159.06 13.91 159.229 13.715 159.385 13.533C159.567 13.325 159.749 13.182 159.931 13.104C160.321 12.896 160.62 12.74 160.828 12.636C161.062 12.532 161.244 12.467 161.374 12.441C161.53 12.389 161.66 12.363 161.764 12.363C161.868 12.363 161.998 12.363 162.154 12.363C162.232 12.363 162.323 12.35 162.427 12.324H162.856C163.22 12.324 163.48 12.35 163.636 12.402L164.65 12.831C164.884 13.117 165.04 13.546 165.118 14.118C165.144 14.716 165.274 15.145 165.508 15.405C165.95 15.327 166.626 14.911 167.536 14.157C168.472 13.429 169.174 13.065 169.642 13.065C170.968 13.065 171.878 13.286 172.372 13.728C173.074 14.43 173.425 15.197 173.425 16.029C173.425 16.653 173.009 17.771 172.177 19.383C171.319 20.995 170.89 22.152 170.89 22.854C170.63 23.14 170.5 23.595 170.5 24.219C170.5 24.297 170.5 24.401 170.5 24.531C170.5 24.661 170.513 24.817 170.539 24.999V25.74V26.325C171.059 26.923 171.605 27.222 172.177 27.222C172.229 27.222 172.307 27.222 172.411 27.222C172.515 27.222 172.632 27.248 172.762 27.3C172.918 27.352 173.048 27.378 173.152 27.378C173.282 27.378 173.386 27.378 173.464 27.378C173.88 27.378 174.621 26.936 175.687 26.052C175.895 25.688 176.168 25.246 176.506 24.726C176.844 24.206 177.26 23.608 177.754 22.932C178.092 22.464 178.378 21.996 178.612 21.528C178.872 21.034 179.145 20.761 179.431 20.709C179.587 20.579 179.756 20.527 179.938 20.553C180.12 20.579 180.211 20.774 180.211 21.138ZM190.962 32.253C190.962 30.251 190.338 28.678 189.09 27.534C189.038 27.794 188.882 28.119 188.622 28.509C188.336 28.951 188.193 29.276 188.193 29.484C188.193 29.588 188.206 29.666 188.232 29.718C187.868 30.55 187.4 31.564 186.828 32.76C186.282 33.982 185.632 35.412 184.878 37.05C184.878 37.466 184.696 38.246 184.332 39.39C183.968 40.482 183.786 41.262 183.786 41.73C183.786 42.614 184.15 43.342 184.878 43.914C185.97 43.706 186.932 43.108 187.764 42.12C187.842 42.068 188.037 41.795 188.349 41.301C188.687 40.833 189.155 40.144 189.753 39.234C189.883 38.688 190 38.142 190.104 37.596C190.234 37.05 190.364 36.491 190.494 35.919C190.806 34.489 190.962 33.267 190.962 32.253ZM190.689 17.511V17.16C190.091 16.25 189.233 15.795 188.115 15.795C187.985 15.795 187.725 15.821 187.335 15.873C186.971 15.899 186.464 15.964 185.814 16.068C184.124 16.77 182.668 17.914 181.446 19.5C180.224 21.034 179.535 22.698 179.379 24.492C179.691 25.116 180.263 25.428 181.095 25.428C181.173 25.428 181.277 25.428 181.407 25.428C181.563 25.402 181.745 25.376 181.953 25.35C182.161 25.324 182.33 25.311 182.46 25.311C182.59 25.285 182.707 25.272 182.811 25.272C182.941 25.272 183.11 25.298 183.318 25.35C184.098 24.83 184.878 24.323 185.658 23.829C186.438 23.309 187.205 22.802 187.959 22.308C189.779 20.8 190.689 19.201 190.689 17.511ZM203.247 21.762C203.247 22.152 203.026 22.581 202.584 23.049C202.142 23.543 201.895 23.894 201.843 24.102C200.699 25.636 199.516 26.637 198.294 27.105C197.722 27.365 195.98 27.729 193.068 28.197C192.808 28.301 192.678 28.457 192.678 28.665C192.678 28.691 192.73 28.834 192.834 29.094C192.938 29.302 193.016 29.458 193.068 29.562C193.094 30.212 193.107 30.784 193.107 31.278C193.133 31.798 193.146 32.24 193.146 32.604C193.146 34.528 192.977 36.166 192.639 37.518C192.639 39.156 192.015 40.807 190.767 42.471C189.649 43.979 188.271 45.175 186.633 46.059H183.747C183.695 45.877 183.214 45.253 182.304 44.187C181.966 43.823 181.732 43.446 181.602 43.056C181.472 42.692 181.407 42.341 181.407 42.003V41.847C181.407 40.001 182.2 37.388 183.786 34.008C185.294 30.732 186.113 28.197 186.243 26.403C184.657 27.469 183.097 28.002 181.563 28.002C180.913 28.002 180.263 27.924 179.613 27.768C178.625 27.534 178.001 26.832 177.741 25.662C177.637 25.168 177.546 24.687 177.468 24.219C177.39 23.725 177.299 23.218 177.195 22.698C178.911 17.524 181.472 14.664 184.878 14.118C185.684 13.546 186.62 13.26 187.686 13.26C189.636 13.26 191.365 14.053 192.873 15.639C192.951 15.873 193.237 16.237 193.731 16.731C193.653 17.329 193.51 17.966 193.302 18.642C193.094 19.318 192.808 20.02 192.444 20.748C192.132 21.398 191.794 22.035 191.43 22.659C191.092 23.257 190.767 23.868 190.455 24.492C191.261 25.22 192.366 25.584 193.77 25.584C194.394 25.584 195.044 25.506 195.72 25.35C196.162 25.142 196.565 24.986 196.929 24.882C197.293 24.778 197.631 24.713 197.943 24.687C199.269 24.193 200.088 23.556 200.4 22.776C200.816 21.736 201.44 20.956 202.272 20.436C202.922 20.748 203.247 21.19 203.247 21.762ZM226.488 23.049C226.488 23.621 226.15 24.427 225.474 25.467C224.902 26.351 223.875 26.988 222.393 27.378C220.729 27.846 219.637 28.34 219.117 28.86H214.905C214.749 28.34 214.294 27.729 213.54 27.027C213.176 26.663 212.877 26.338 212.643 26.052C212.435 25.766 212.292 25.506 212.214 25.272C209.978 28.392 207.326 29.952 204.258 29.952C203.452 29.952 202.867 29.588 202.503 28.86C202.139 28.132 201.866 27.391 201.684 26.637C201.502 25.883 201.411 25.09 201.411 24.258C201.411 23.504 201.476 22.698 201.606 21.84C201.762 20.956 202.009 19.994 202.347 18.954C202.633 18.096 202.919 17.238 203.205 16.38C203.491 15.522 203.777 14.664 204.063 13.806C204.401 13.468 204.739 13.299 205.077 13.299C205.389 13.299 205.662 13.455 205.896 13.767C206.156 14.053 206.286 14.417 206.286 14.859C206.286 15.119 206.208 15.366 206.052 15.6C204.258 18.876 203.361 21.541 203.361 23.595C203.361 24.999 203.738 26.299 204.492 27.495C204.57 27.521 204.687 27.534 204.843 27.534C205.025 27.534 205.272 27.365 205.584 27.027C205.896 26.715 206.156 26.559 206.364 26.559C206.416 26.559 206.455 26.572 206.481 26.598C208.171 26.208 209.497 25.337 210.459 23.985C210.953 23.283 211.616 21.866 212.448 19.734C212.812 18.746 213.176 17.914 213.54 17.238C213.904 16.562 214.281 16.016 214.671 15.6V15.171C214.671 14.261 214.957 13.806 215.529 13.806C216.049 13.806 216.569 14.404 217.089 15.6C216.959 16.172 216.413 17.446 215.451 19.422C214.671 21.112 214.281 22.425 214.281 23.361C214.281 24.583 214.762 25.662 215.724 26.598C215.932 26.65 216.153 26.689 216.387 26.715C216.621 26.741 216.855 26.754 217.089 26.754C218.961 26.754 220.781 25.974 222.549 24.414C223.043 24.336 223.654 23.985 224.382 23.361C225.084 22.737 225.721 22.425 226.293 22.425H226.371C226.449 22.633 226.488 22.841 226.488 23.049ZM233.026 15.444C232.948 15.132 232.883 14.846 232.831 14.586C232.779 14.3 232.74 14.014 232.714 13.728V13.455H232.558H232.246C231.726 13.455 230.79 13.767 229.438 14.391C227.982 16.133 227.215 17.927 227.137 19.773C227.137 19.877 227.15 19.994 227.176 20.124C227.202 20.228 227.241 20.345 227.293 20.475C227.423 20.813 227.488 21.047 227.488 21.177C227.514 21.385 227.553 21.71 227.605 22.152C228.827 21.684 229.984 20.748 231.076 19.344C231.596 18.668 232.012 18.005 232.324 17.355C232.662 16.705 232.896 16.068 233.026 15.444ZM243.712 23.322C243.504 23.972 242.906 24.726 241.918 25.584C241.554 25.896 241.19 26.208 240.826 26.52C240.488 26.832 240.137 27.144 239.773 27.456C238.473 27.872 237.277 28.197 236.185 28.431C235.119 28.639 234.131 28.756 233.221 28.782C230.959 28.912 229.048 28.405 227.488 27.261C227.176 26.897 226.838 26.546 226.474 26.208C226.136 25.87 225.785 25.519 225.421 25.155C225.213 24.687 225.057 24.193 224.953 23.673C224.849 23.153 224.784 22.62 224.758 22.074C224.68 19.916 225.018 17.927 225.772 16.107C226.11 15.301 226.851 14.053 227.995 12.363C229.243 11.375 230.66 10.868 232.246 10.842C233.234 10.79 234.014 10.998 234.586 11.466C235.262 12.012 235.574 12.896 235.522 14.118L235.483 14.352C235.405 16.146 234.534 18.122 232.87 20.28C231.336 22.256 229.867 23.595 228.463 24.297C229.191 25.649 230.816 26.39 233.338 26.52H234.04C235.314 26.468 236.406 26.182 237.316 25.662C237.914 25.48 238.746 24.96 239.812 24.102C240.982 23.218 241.84 22.776 242.386 22.776C242.854 22.724 243.296 22.906 243.712 23.322Z" fill="white"/>
</svg>
