<svg width="151" height="35" viewBox="0 0 151 35" fill="none" xmlns="http://www.w3.org/2000/svg">
<path d="M30.3022 0.84375V0.632812H35.435V0.84375H35.8393V1.21289H36.0151V1.42383H35.8393V1.61719H35.6284V1.82812H35.2241V2.00391H34.2397V2.21484H34.0639V2.4082H33.853V3.41016H34.0639V3.99023H33.853V4.58789H34.0639V5.37891H33.853V11.707H34.0639V12.0938H34.4507V12.3047H36.6303V12.0938H38.1948V11.918H38.7925V11.707H39.1968V10.7227H39.3725V9.52734H39.5835V9.35156H40.5678V9.52734H40.7788V12.3047H40.9721V12.9023H40.7788V13.4824H40.3745V13.6934H38.9858V13.4824H30.8823V13.2891H30.4956V12.9023H30.3022V12.709H30.4956V12.498H30.7065V12.3047H30.8823V12.0938H32.0776V11.918H32.2534V3.60352H32.4643V2.4082H32.2534V2.21484H32.0776V2.00391H30.3022V1.82812H29.8979V0.84375H30.3022ZM46.7673 0.650391V0.457031H47.7517V0.650391H48.1384V0.861328H48.3493V1.03711H48.5427V2.23242H48.3493V2.42578H48.1384V2.63672H47.9626V2.8125H47.7517V3.02344H47.3474V3.2168H46.7673V3.02344H46.1872V2.8125H45.9763V2.63672H45.7829V1.44141H45.9763V1.03711H46.1872V0.861328H46.363V0.650391H46.7673ZM46.5739 4.62305V4.41211H47.3474V4.62305H47.7517V5.20312H47.9626V5.7832H47.7517V11.9355H47.9626V12.1113H48.3493V12.3223H51.4958V12.5156H51.9001V13.3066H51.7068V13.5176H51.32V13.7109H50.3181V13.5176H43.99V13.7109H43.6208V13.5176H43.2165V13.1133H43.0056V12.9023H43.2165V12.5156H43.4099V12.3223H45.3962V12.1113H45.7829V11.9355H46.1872V5.99414H45.572V5.7832H44.2009V5.99414H43.4099V5.7832H43.2165V5.58984H43.0056V5.00977H43.2165V4.79883H44.781V4.62305H46.5739ZM62.4238 10.2656V9.07031H62.6347V8.49023H62.4238V7.89258H62.248V7.50586H62.0371V7.11914H61.8437V6.9082H61.6328V6.71484H61.4394V6.50391H61.2285V6.32812H61.0527V6.11719H60.4375V5.92383H58.2753V6.11719H57.8711V6.32812H57.4843V6.71484H57.291V11.6543H57.4843V11.8652H57.6953V12.041H57.8711V12.252H58.6621V12.4453H60.2617V12.252H60.6484V12.041H61.0527V11.8652H61.2285V11.6543H61.6328V11.25H61.8437V11.0566H62.0371V10.6699H62.248V10.2656H62.4238ZM56.0957 0.175781V0H57.291V0.175781H57.4843V0.580078H57.6953V0.791016H57.4843V2.74219H57.291V4.72852H57.4843V4.92188H58.082V4.72852H59.0664V4.55273H61.0527V4.72852H61.6328V4.92188H62.0371V5.13281H62.248V5.32617H62.6347V5.51953H62.8281V5.71289H63.0039V5.92383H63.2148V6.32812H63.4082V6.50391H63.6191V6.9082H63.7949V7.29492H64.0058V8.49023H64.1992V9.87891H64.0058V10.6699H63.7949V11.25H63.6191V11.6543H63.4082V11.8652H63.2148V12.041H63.0039V12.252H62.8281V12.4453H62.6347V12.6562H62.4238V12.832H62.0371V13.043H61.8437V13.2363H61.2285V13.4473H60.6484V13.6406H58.082V13.4473H56.9043V13.6406H55.9199V13.4473H55.7089V9.47461H55.9199V2.16211H55.7089V1.77539H55.5156V1.58203H54.3378V1.37109H54.1269V1.17773H53.9336V0.966797H54.1269V0.580078H54.5136V0.386719H55.5156V0.175781H56.0957ZM73.9318 4.35938V4.18359H74.5295V4.35938H75.3205V4.57031H75.7248V4.76367H75.9006V4.97461H76.1115V5.95898H75.9006V6.13477H75.7248V6.3457H73.9318V6.13477H73.3342V5.95898H73.1584V6.13477H72.3674V6.3457H71.9631V6.53906H71.5764V6.75H71.3654V6.94336H71.1721V7.1543H70.9611V7.33008H70.7678V7.54102H70.5568V7.73438H70.3811V11.8828H70.5568V12.0762H70.7678V12.2871H73.7385V12.4805H73.9318V12.8672H74.1428V13.0781H73.9318V13.2715H73.7385V13.4824H71.7521V13.2715H71.5764V13.4824H67.4103V13.2715H67.2346V13.0781H67.0236V12.4805H67.2346V12.2871H68.2014V12.0762H68.6057V11.8828H68.799V11.4961H69.01V8.31445H68.799V7.94531H69.01V7.73438H68.799V6.13477H68.6057V5.95898H68.2014V5.74805H67.6037V5.95898H66.6193V6.13477H66.4436V5.74805H66.2326V4.97461H66.4436V4.76367H67.6037V4.57031H68.799V4.35938H69.801V4.76367H69.9768V4.97461H70.1877V5.55469H70.3811V5.95898H70.7678V5.74805H71.1721V5.55469H71.3654V5.34375H71.5764V5.16797H71.9631V4.97461H72.3674V4.76367H72.7541V4.57031H73.1584V4.35938H73.9318ZM85.4575 10.3359V9.54492H85.6684V8.56055H85.4575V7.76953H85.2641V7.36523H85.0532V7.18945H84.8774V6.57422H84.684V6.39844H84.4731V6.1875H84.2973V5.99414H83.893V5.7832H83.4887V5.58984H81.1157V5.7832H80.7114V5.99414H80.5356V6.1875H80.3246V6.39844H80.1313V6.57422H79.9203V6.97852H79.7446V7.57617H79.5336V8.34961H79.3403V9.75586H79.5336V10.5469H79.7446V10.7402H79.9203V11.127H80.1313V11.3203H80.3246V11.5312H80.5356V11.7246H80.7114V11.9355H80.9223V12.1113H81.3266V12.3223H81.9067V12.5156H83.102V12.3223H83.6821V12.1113H84.0864V11.9355H84.4731V11.7246H84.684V11.5312H84.8774V11.127H85.0532V10.7402H85.2641V10.3359H85.4575ZM81.7309 4.41211V4.21875H83.102V4.41211H84.0864V4.62305H84.684V4.79883H85.2641V5.00977H85.4575V5.20312H85.6684V5.37891H85.8442V5.58984H86.0551V5.7832H86.2485V6.1875H86.4594V6.39844H86.6528V6.78516H86.8637V7.18945H87.0395V8.17383H87.2504V9.54492H87.0395V10.1602H86.8637V11.127H86.6528V11.5312H86.4594V11.7246H86.2485V11.9355H86.0551V12.1113H85.8442V12.3223H85.6684V12.5156H85.2641V12.7266H85.0532V12.9023H84.8774V13.1133H84.4731V13.3066H84.0864V13.5176H83.2778V13.7109H81.3266V13.5176H80.7114V13.3066H80.1313V13.1133H79.7446V12.9023H79.5336V12.7266H79.1293V12.5156H78.9536V12.3223H78.7602V12.1113H78.5493V11.7246H78.3559V11.3203H78.145V10.7402H77.9692V10.3359H77.7582V7.76953H77.9692V7.18945H78.145V6.78516H78.3559V6.39844H78.5493V6.1875H78.7602V5.7832H78.9536V5.58984H79.3403V5.37891H79.5336V5.20312H79.7446V5.00977H80.1313V4.79883H80.5356V4.62305H80.9223V4.41211H81.7309ZM99.8603 8.10352V9.68555H100.054V10.4766H100.265V10.8457H100.458V11.0566H100.669V11.4609H100.845V11.6543H101.056V11.8652H101.249V12.041H101.636V12.252H103.024V12.4453H103.411V12.252H104.202V12.041H104.606V11.8652H104.817V11.6543H104.993V9.87891H105.204V7.11914H104.993V6.32812H104.606V6.11719H104.202V5.92383H103.622V5.71289H102.251V5.92383H101.636V6.11719H101.249V6.32812H100.845V6.71484H100.669V6.9082H100.458V7.11914H100.265V7.50586H100.054V8.10352H99.8603ZM105.608 0.175781V0H106.593V0.580078H106.768V1.37109H106.593V2.16211H106.768V2.74219H106.593V11.4609H106.768V11.8652H107.77V12.041H108.175V12.832H107.964V13.043H107.173V13.2363H106.593V13.4473H105.397V13.2363H104.413V13.4473H103.622V13.6406H101.056V13.4473H100.669V13.2363H100.265V13.043H100.054V12.832H99.6845V12.6562H99.4735V12.4453H99.2802V12.252H99.0693V11.8652H98.8935V11.6543H98.6825V11.25H98.4892V10.4766H98.2782V8.10352H98.4892V7.50586H98.6825V6.9082H98.8935V6.50391H99.0693V6.32812H99.2802V6.11719H99.4735V5.92383H99.6845V5.71289H99.8603V5.51953H100.054V5.32617H100.458V5.13281H100.845V4.92188H101.249V4.72852H104.413V4.92188H104.993V4.3418H105.204V3.9375H104.993V2.74219H105.204V2.16211H104.993V1.77539H104.413V1.58203H103.411V0.791016H103.622V0.580078H104.026V0.386719H104.993V0.175781H105.608ZM117.327 7.89258V7.50586H117.503V7.29492H117.327V6.9082H117.116V6.71484H116.923V6.50391H116.712V6.11719H116.325V5.92383H116.132V5.71289H115.517V5.51953H113.97V5.71289H113.566V5.92383H113.355V6.11719H113.161V6.32812H112.95V6.50391H112.775V6.71484H112.564V6.9082H112.37V7.29492H112.159V8.2793H115.341V8.10352H117.116V7.89258H117.327ZM113.566 4.55273V4.3418H116.325V4.55273H116.712V4.72852H117.116V4.92188H117.327V5.13281H117.696V5.32617H117.907V5.51953H118.083V5.71289H118.294V6.11719H118.487V6.32812H118.698V6.71484H118.892V7.29492H119.103V8.89453H118.892V9.07031H118.294V9.28125H113.161V9.47461H112.159V9.68555H111.984V10.2656H112.159V10.6699H112.37V11.0566H112.564V11.25H112.775V11.4609H112.95V11.6543H113.355V11.8652H113.759V12.041H114.55V12.252H116.132V12.041H117.327V11.8652H117.907V11.6543H118.487V11.4609H119.278V11.6543H119.489V12.252H119.278V12.4453H119.103V12.6562H118.698V12.832H118.294V13.043H117.503V13.2363H116.712V13.4473H115.728V13.6406H113.759V13.4473H112.95V13.2363H112.37V13.043H111.984V12.832H111.773V12.6562H111.579V12.4453H111.193V12.252H110.999V11.8652H110.788V11.6543H110.595V11.25H110.384V10.2656H110.208V8.49023H110.384V7.50586H110.595V7.11914H110.788V6.71484H110.999V6.32812H111.193V6.11719H111.403V5.92383H111.579V5.51953H111.773V5.32617H111.984V5.13281H112.37V4.92188H112.775V4.72852H113.161V4.55273H113.566ZM7.57617 26.3789V25.7461H7.76953V24.3223H7.57617V23.707H7.38281V23.4961H7.17188V23.3027H6.75V23.0742H6.55664V22.8809H5.73047V22.6699H3.67383V22.8809H3.48047V23.3027H3.26953V27.2051H3.48047V27.3984H6.3457V27.2051H6.75V26.9766H6.97852V26.7832H7.17188V26.5723H7.38281V26.3789H7.57617ZM0.404297 21.6504V21.457H1.61719V21.6504H2.02148V21.457H2.6543V21.6504H4.5V21.457H5.32617V21.6504H7.38281V21.8613H7.98047V22.0547H8.17383V22.248H8.40234V22.4766H8.5957V22.6699H8.80664V22.8809H9V23.0742H9.22852V23.4961H9.42188V24.3223H9.63281V25.7461H9.42188V26.3789H9.22852V26.7832H9V26.9766H8.80664V27.3984H8.40234V27.6094H8.17383V27.8027H7.76953V28.0312H7.38281V28.2246H6.97852V28.418H6.55664V28.8223H6.75V29.0508H7.17188V29.2441H7.38281V29.4551H7.57617V29.6484H7.76953V29.8594H7.98047V30.0703H8.17383V30.4746H8.40234V30.6855H8.5957V30.8789H8.80664V31.3008H9V31.7051H9.22852V31.8984H9.42188V32.3203H9.63281V32.7246H9.82617V33.1465H10.248V33.3574H10.6523V33.5508H11.6719V33.7793H11.8828V34.377H11.6719V34.7988H9V34.5703H8.80664V34.377H8.5957V34.1836H8.40234V33.7793H8.17383V33.5508H7.98047V33.1465H7.76953V32.9531H7.57617V32.5312H7.38281V32.127H7.17188V31.7051H6.97852V31.3008H6.75V30.8789H6.55664V30.4746H6.3457V30.0703H5.92383V29.8594H5.73047V29.4551H5.51953V29.2441H5.32617V29.0508H4.9043V28.8223H4.69336V28.6289H3.48047V28.8223H3.26953V33.1465H3.48047V33.3574H3.90234V33.5508H5.09766V33.7793H5.51953V34.377H5.32617V34.5703H0.597656V34.377H0.404297V33.7793H0.597656V33.5508H0.826172V33.3574H1.42383V33.1465H1.82812V23.0742H1.61719V22.8809H1.42383V22.6699H1.01953V22.8809H0.826172V22.6699H0.193359V22.4766H0V21.8613H0.193359V21.6504H0.404297ZM20.2268 28.8926V28.5059H20.4026V28.2949H20.2268V27.9082H20.0159V27.7148H19.8225V27.5039H19.6116V27.1172H19.2248V26.9238H19.0315V26.7129H18.4163V26.5195H16.8694V26.7129H16.4651V26.9238H16.2541V27.1172H16.0608V27.3281H15.8498V27.5039H15.6741V27.7148H15.4631V27.9082H15.2698V28.2949H15.0588V29.2793H18.2405V29.1035H20.0159V28.8926H20.2268ZM16.4651 25.5527V25.3418H19.2248V25.5527H19.6116V25.7285H20.0159V25.9219H20.2268V26.1328H20.5959V26.3262H20.8069V26.5195H20.9827V26.7129H21.1936V27.1172H21.387V27.3281H21.5979V27.7148H21.7913V28.2949H22.0022V29.8945H21.7913V30.0703H21.1936V30.2812H16.0608V30.4746H15.0588V30.6855H14.883V31.2656H15.0588V31.6699H15.2698V32.0566H15.4631V32.25H15.6741V32.4609H15.8498V32.6543H16.2541V32.8652H16.6584V33.041H17.4495V33.252H19.0315V33.041H20.2268V32.8652H20.8069V32.6543H21.387V32.4609H22.178V32.6543H22.3889V33.252H22.178V33.4453H22.0022V33.6562H21.5979V33.832H21.1936V34.043H20.4026V34.2363H19.6116V34.4473H18.6272V34.6406H16.6584V34.4473H15.8498V34.2363H15.2698V34.043H14.883V33.832H14.6721V33.6562H14.4788V33.4453H14.092V33.252H13.8987V32.8652H13.6877V32.6543H13.4944V32.25H13.2834V31.2656H13.1077V29.4902H13.2834V28.5059H13.4944V28.1191H13.6877V27.7148H13.8987V27.3281H14.092V27.1172H14.303V26.9238H14.4788V26.5195H14.6721V26.3262H14.883V26.1328H15.2698V25.9219H15.6741V25.7285H16.0608V25.5527H16.4651ZM28.1841 25.5527V25.3418H30.7505V25.5527H31.3305V25.7285H31.7173V25.9219H31.9282V26.1328H32.1216V26.3262H32.2973V26.5195H32.5083V26.9238H32.7016V27.9082H32.9126V28.2949H32.7016V28.6992H32.5083V28.8926H31.5415V28.6992H31.1372V28.2949H30.9263V27.1172H30.7505V26.9238H30.5395V26.7129H29.9419V26.5195H28.3598V26.7129H27.9731V26.9238H27.5688V27.1172H27.3755V27.3281H27.1645V27.5039H26.9888V27.7148H26.7778V27.9082H26.5845V28.2949H26.3735V28.8926H26.1977V31.0898H26.3735V31.6699H26.5845V31.8457H26.7778V32.25H26.9888V32.4609H27.1645V32.6543H27.5688V32.8652H27.9731V33.041H28.9751V33.252H30.1352V33.041H31.3305V32.8652H31.7173V32.6543H32.2973V32.4609H33.3169V32.6543H33.4927V33.252H33.3169V33.4453H33.1059V33.6562H32.7016V33.832H32.1216V34.043H31.7173V34.2363H30.7505V34.4473H30.1352V34.6406H27.7798V34.4473H26.9888V34.2363H26.3735V34.043H26.1977V33.832H26.0044V33.6562H25.7934V33.4453H25.6177V33.252H25.4067V33.041H25.2134V32.6543H25.0024V32.25H24.8091V31.6699H24.5981V31.0898H24.4223V29.6836H24.5981V28.5059H24.8091V28.1191H25.0024V27.7148H25.2134V27.3281H25.4067V27.1172H25.6177V26.9238H25.7934V26.7129H26.0044V26.5195H26.1977V26.3262H26.3735V26.1328H26.7778V25.9219H26.9888V25.7285H27.5688V25.5527H28.1841ZM38.5144 21.2461V21.0703H39.6745V21.2461H39.8855V22.8281H40.0612V23.0391H39.8855V27.5742H39.6745V29.7539H39.8855V31.1602H39.6745V32.7246H39.8855V33.1113H40.2722V33.3223H42.8386V33.5156H43.2429V33.7266H43.4362V33.9023H43.6472V34.1133H43.4362V34.5176H42.8386V34.7109H41.8366V34.5176H38.5144V34.7109H37.7058V34.5176H35.5437V33.7266H35.737V33.5156H35.9128V33.3223H37.8991V33.1113H38.1101V32.9355H38.3034V31.7402H38.1101V31.1602H38.3034V22.8281H38.1101V22.6523H36.7038V22.8281H35.3327V22.6523H35.1394V21.8613H35.3327V21.6504H36.1237V21.457H37.4948V21.2461H38.5144ZM51.9912 32.4609V32.0566H52.2021V30.4746H51.9912V30.2812H49.249V30.4746H48.6338V30.6855H48.247V30.8789H47.8603V31.0898H47.6494V31.2656H47.4736V31.6699H47.2627V32.4609H47.4736V32.8652H47.8603V33.041H48.247V33.252H49.4248V33.4453H49.6357V33.252H50.6201V33.041H51.0244V32.8652H51.4111V32.6543H51.8154V32.4609H51.9912ZM49.6357 25.5527V25.3418H52.3955V25.5527H52.7822V25.7285H53.1865V25.9219H53.3974V26.1328H53.5908V26.3262H53.8017V26.7129H53.9775V28.8926H53.8017V33.041H54.5576V32.8652H55.1728V33.041H55.3486V33.252H55.5595V33.832H55.3486V34.043H54.5576V34.2363H53.9775V34.4473H52.6064V34.2363H52.3955V34.043H51.9912V33.832H51.6045V34.043H51.0244V34.2363H50.2158V34.4473H47.4736V34.2363H47.0693V34.043H46.6826V33.832H46.2783V33.6562H46.0673V33.252H45.8916V32.8652H45.6806V31.4766H45.8916V31.0898H46.0673V30.6855H46.2783V30.4746H46.4716V30.2812H46.8584V30.0703H47.2627V29.8945H47.6494V29.6836H48.247V29.4902H49.038V29.2793H50.2158V29.1035H50.4267V29.2793H51.4111V29.1035H51.9912V28.8926H52.2021V28.6992H52.3955V27.1172H52.2021V26.9238H51.9912V26.7129H51.8154V26.5195H51.4111V26.3262H49.8291V26.5195H49.4248V26.7129H49.038V26.9238H48.8447V27.1172H48.6338V27.7148H48.458V27.9082H48.247V28.1191H47.2627V27.9082H47.0693V27.7148H46.8584V26.7129H47.0693V26.3262H47.4736V26.1328H47.8603V25.9219H48.247V25.7285H48.6338V25.5527H49.6357ZM62.55 25.623V25.4121H62.7609V25.623H63.5168V25.7988H63.9211V26.0098H64.3254V26.2031H64.923V26.0098H65.3273V25.7988H66.1184V25.623H67.8938V25.7988H68.2805V26.0098H68.4738V26.2031H68.6848V26.5898H68.8605V26.7832H69.0715V27.3984H69.2648V30.9492H69.0715V33.1113H69.2648V33.3223H69.6691V33.5156H70.2492V33.9023H70.4602V34.1133H70.2492V34.5176H67.2785V34.3066H67.1027V34.1133H66.8918V33.9023H67.1027V33.7266H67.2785V33.5156H67.4895V32.9355H67.6828V27.5742H67.4895V27.1875H67.1027V26.7832H65.5031V26.9941H65.3273V27.1875H65.1164V27.3984H64.923V33.1113H65.1164V33.3223H65.3273V33.5156H65.9074V33.9023H66.1184V34.1133H65.9074V34.5176H63.1477V34.3066H62.9367V33.7266H63.1477V33.5156H63.341V33.3223H63.5168V32.127H63.7277V28.1895H63.5168V27.5742H63.341V27.3984H63.1477V26.9941H62.9367V26.7832H61.5656V26.9941H61.3547V27.1875H60.9504V27.3984H60.7746V27.5742H60.5637V33.1113H60.7746V33.3223H60.9504V33.5156H61.759V33.7266H61.9699V33.9023H62.1457V34.1133H61.9699V34.3066H61.759V34.5176H58.9992V34.3066H58.5949V33.5156H58.7883V33.3223H58.9992V33.1113H59.1926V27.3984H58.9992V27.1875H57.8039V26.7832H57.593V26.3789H57.8039V26.0098H58.384V25.7988H59.4035V25.623H60.1945V25.7988H60.5637V26.0098H60.7746V25.7988H61.5656V25.623H62.55ZM78.8041 32.4609V32.0566H79.0151V30.4746H78.8041V30.2812H76.062V30.4746H75.4467V30.6855H75.06V30.8789H74.6733V31.0898H74.4623V31.2656H74.2866V31.6699H74.0756V32.4609H74.2866V32.8652H74.6733V33.041H75.06V33.252H76.2377V33.4453H76.4487V33.252H77.433V33.041H77.8373V32.8652H78.2241V32.6543H78.6284V32.4609H78.8041ZM76.4487 25.5527V25.3418H79.2084V25.5527H79.5952V25.7285H79.9995V25.9219H80.2104V26.1328H80.4037V26.3262H80.6147V26.7129H80.7905V28.8926H80.6147V33.041H81.3705V32.8652H81.9858V33.041H82.1616V33.252H82.3725V33.832H82.1616V34.043H81.3705V34.2363H80.7905V34.4473H79.4194V34.2363H79.2084V34.043H78.8041V33.832H78.4174V34.043H77.8373V34.2363H77.0287V34.4473H74.2866V34.2363H73.8823V34.043H73.4955V33.832H73.0912V33.6562H72.8803V33.252H72.7045V32.8652H72.4936V31.4766H72.7045V31.0898H72.8803V30.6855H73.0912V30.4746H73.2846V30.2812H73.6713V30.0703H74.0756V29.8945H74.4623V29.6836H75.06V29.4902H75.851V29.2793H77.0287V29.1035H77.2397V29.2793H78.2241V29.1035H78.8041V28.8926H79.0151V28.6992H79.2084V27.1172H79.0151V26.9238H78.8041V26.7129H78.6284V26.5195H78.2241V26.3262H76.642V26.5195H76.2377V26.7129H75.851V26.9238H75.6577V27.1172H75.4467V27.7148H75.2709V27.9082H75.06V28.1191H74.0756V27.9082H73.8823V27.7148H73.6713V26.7129H73.8823V26.3262H74.2866V26.1328H74.6733V25.9219H75.06V25.7285H75.4467V25.5527H76.4487ZM88.1677 25.5527V25.3418H90.7341V25.5527H91.3141V25.7285H91.7009V25.9219H91.9118V26.1328H92.1052V26.3262H92.2809V26.5195H92.4919V26.9238H92.6852V27.9082H92.8962V28.2949H92.6852V28.6992H92.4919V28.8926H91.5251V28.6992H91.1208V28.2949H90.9098V27.1172H90.7341V26.9238H90.5231V26.7129H89.9255V26.5195H88.3434V26.7129H87.9567V26.9238H87.5524V27.1172H87.3591V27.3281H87.1481V27.5039H86.9723V27.7148H86.7614V27.9082H86.568V28.2949H86.3571V28.8926H86.1813V31.0898H86.3571V31.6699H86.568V31.8457H86.7614V32.25H86.9723V32.4609H87.1481V32.6543H87.5524V32.8652H87.9567V33.041H88.9587V33.252H90.1188V33.041H91.3141V32.8652H91.7009V32.6543H92.2809V32.4609H93.3005V32.6543H93.4762V33.252H93.3005V33.4453H93.0895V33.6562H92.6852V33.832H92.1052V34.043H91.7009V34.2363H90.7341V34.4473H90.1188V34.6406H87.7634V34.4473H86.9723V34.2363H86.3571V34.043H86.1813V33.832H85.988V33.6562H85.777V33.4453H85.6012V33.252H85.3903V33.041H85.197V32.6543H84.986V32.25H84.7927V31.6699H84.5817V31.0898H84.4059V29.6836H84.5817V28.5059H84.7927V28.1191H84.986V27.7148H85.197V27.3281H85.3903V27.1172H85.6012V26.9238H85.777V26.7129H85.988V26.5195H86.1813V26.3262H86.3571V26.1328H86.7614V25.9219H86.9723V25.7285H87.5524V25.5527H88.1677ZM99.2714 21.6504V21.457H100.256V21.6504H100.643V21.8613H100.853V22.0371H101.047V23.2324H100.853V23.4258H100.643V23.6367H100.467V23.8125H100.256V24.0234H99.8515V24.2168H99.2714V24.0234H98.6913V23.8125H98.4804V23.6367H98.287V22.4414H98.4804V22.0371H98.6913V21.8613H98.8671V21.6504H99.2714ZM99.078 25.623V25.4121H99.8515V25.623H100.256V26.2031H100.467V26.7832H100.256V32.9355H100.467V33.1113H100.853V33.3223H104V33.5156H104.404V34.3066H104.211V34.5176H103.824V34.7109H102.822V34.5176H96.4941V34.7109H96.1249V34.5176H95.7206V34.1133H95.5097V33.9023H95.7206V33.5156H95.914V33.3223H97.9003V33.1113H98.287V32.9355H98.6913V26.9941H98.0761V26.7832H96.705V26.9941H95.914V26.7832H95.7206V26.5898H95.5097V26.0098H95.7206V25.7988H97.2851V25.623H99.078ZM114.137 31.3359V30.5449H114.348V29.5605H114.137V28.7695H113.944V28.3652H113.733V28.1895H113.557V27.5742H113.363V27.3984H113.152V27.1875H112.977V26.9941H112.572V26.7832H112.168V26.5898H109.795V26.7832H109.391V26.9941H109.215V27.1875H109.004V27.3984H108.811V27.5742H108.6V27.9785H108.424V28.5762H108.213V29.3496H108.02V30.7559H108.213V31.5469H108.424V31.7402H108.6V32.127H108.811V32.3203H109.004V32.5312H109.215V32.7246H109.391V32.9355H109.602V33.1113H110.006V33.3223H110.586V33.5156H111.781V33.3223H112.361V33.1113H112.766V32.9355H113.152V32.7246H113.363V32.5312H113.557V32.127H113.733V31.7402H113.944V31.3359H114.137ZM110.41 25.4121V25.2188H111.781V25.4121H112.766V25.623H113.363V25.7988H113.944V26.0098H114.137V26.2031H114.348V26.3789H114.524V26.5898H114.735V26.7832H114.928V27.1875H115.139V27.3984H115.332V27.7852H115.543V28.1895H115.719V29.1738H115.93V30.5449H115.719V31.1602H115.543V32.127H115.332V32.5312H115.139V32.7246H114.928V32.9355H114.735V33.1113H114.524V33.3223H114.348V33.5156H113.944V33.7266H113.733V33.9023H113.557V34.1133H113.152V34.3066H112.766V34.5176H111.957V34.7109H110.006V34.5176H109.391V34.3066H108.811V34.1133H108.424V33.9023H108.213V33.7266H107.809V33.5156H107.633V33.3223H107.44V33.1113H107.229V32.7246H107.035V32.3203H106.824V31.7402H106.649V31.3359H106.438V28.7695H106.649V28.1895H106.824V27.7852H107.035V27.3984H107.229V27.1875H107.44V26.7832H107.633V26.5898H108.02V26.3789H108.213V26.2031H108.424V26.0098H108.811V25.7988H109.215V25.623H109.602V25.4121H110.41ZM123.887 25.623V25.4121H125.662V25.623H125.873V25.7988H126.243V26.0098H126.647V26.2031H126.858V26.3789H127.034V26.5898H127.245V26.9941H127.438V27.5742H127.649V33.1113H127.842V33.3223H128.844V33.5156H129.213V34.5176H128.844V34.7109H127.245V34.5176H125.276V34.1133H125.082V33.9023H125.276V33.7266H125.487V33.5156H125.662V33.3223H125.873V33.1113H126.067V30.7559H126.243V28.9805H126.067V27.9785H125.873V27.5742H125.662V27.3984H125.487V27.1875H125.276V26.9941H124.871V26.7832H123.5V26.9941H123.096V27.1875H122.516V27.3984H122.112V27.5742H121.514V27.9785H121.321V29.7539H121.11V31.9512H121.321V33.1113H121.514V33.3223H122.516V33.5156H122.92V33.7266H123.096V33.9023H123.289V34.1133H123.096V34.3066H122.92V34.5176H119.159V34.3066H118.948V34.1133H118.754V33.9023H118.948V33.5156H119.159V33.3223H119.545V33.1113H119.739V27.1875H119.545V26.9941H118.157V26.7832H117.963V26.2031H118.157V26.0098H118.543V25.7988H119.545V25.623H120.723V25.7988H120.934V26.0098H121.11V26.3789H121.901V26.2031H122.112V26.0098H122.516V25.7988H123.289V25.623H123.887ZM138.366 28.8926V28.5059H138.542V28.2949H138.366V27.9082H138.155V27.7148H137.962V27.5039H137.751V27.1172H137.364V26.9238H137.171V26.7129H136.555V26.5195H135.008V26.7129H134.604V26.9238H134.393V27.1172H134.2V27.3281H133.989V27.5039H133.813V27.7148H133.602V27.9082H133.409V28.2949H133.198V29.2793H136.38V29.1035H138.155V28.8926H138.366ZM134.604 25.5527V25.3418H137.364V25.5527H137.751V25.7285H138.155V25.9219H138.366V26.1328H138.735V26.3262H138.946V26.5195H139.122V26.7129H139.333V27.1172H139.526V27.3281H139.737V27.7148H139.93V28.2949H140.141V29.8945H139.93V30.0703H139.333V30.2812H134.2V30.4746H133.198V30.6855H133.022V31.2656H133.198V31.6699H133.409V32.0566H133.602V32.25H133.813V32.4609H133.989V32.6543H134.393V32.8652H134.798V33.041H135.589V33.252H137.171V33.041H138.366V32.8652H138.946V32.6543H139.526V32.4609H140.317V32.6543H140.528V33.252H140.317V33.4453H140.141V33.6562H139.737V33.832H139.333V34.043H138.542V34.2363H137.751V34.4473H136.766V34.6406H134.798V34.4473H133.989V34.2363H133.409V34.043H133.022V33.832H132.811V33.6562H132.618V33.4453H132.231V33.252H132.038V32.8652H131.827V32.6543H131.633V32.25H131.423V31.2656H131.247V29.4902H131.423V28.5059H131.633V28.1191H131.827V27.7148H132.038V27.3281H132.231V27.1172H132.442V26.9238H132.618V26.5195H132.811V26.3262H133.022V26.1328H133.409V25.9219H133.813V25.7285H134.2V25.5527H134.604ZM146.306 25.3594V25.1836H147.29V25.3594H148.081V25.5703H149.681V25.7637H149.856V25.9746H150.067V26.748H150.261V27.75H150.067V28.3301H149.681V28.541H149.47V28.3301H148.872V27.9434H148.661V27.5391H148.485V26.959H148.292V26.748H147.694V26.5547H145.515V26.748H145.128V26.959H144.934V27.1348H144.724V27.5391H144.548V28.1543H144.724V28.541H144.934V28.7344H145.128V28.9453H145.708V29.1211H147.114V29.3145H148.292V29.5254H148.872V29.7188H149.276V29.9297H149.681V30.1055H149.856V30.3164H150.067V30.5098H150.261V30.7207H150.472V31.3008H150.647V32.6719H150.472V32.8828H150.261V33.0762H150.067V33.4805H149.856V33.6738H149.681V33.8672H149.276V34.0781H149.065V34.2715H148.661V34.4824H147.501V34.6582H145.708V34.4824H144.548V34.2715H144.337V34.4824H143.352V34.2715H143.141V34.0781H142.948V33.8672H142.737V33.0762H142.561V32.4961H142.737V32.2852H142.561V31.916H142.737V31.5117H142.948V31.3008H143.739V31.5117H143.932V31.7051H144.143V32.2852H144.337V32.6719H144.548V32.8828H144.724V33.0762H145.128V33.2871H145.515V33.4805H147.694V33.2871H148.081V33.0762H148.485V32.8828H148.661V32.4961H148.872V31.3008H148.661V31.1074H148.292V30.8965H147.694V30.7207H146.903V30.5098H145.339V30.3164H144.724V30.1055H144.337V29.9297H143.932V29.7188H143.739V29.5254H143.528V29.3145H143.352V28.9453H143.141V28.541H142.948V27.5391H143.141V26.959H143.352V26.748H143.528V26.5547H143.739V26.3438H143.932V26.168H144.143V25.9746H144.337V25.7637H144.724V25.5703H145.128V25.3594H146.306Z" fill="white"/>
</svg>
