<svg width="520" height="48" viewBox="0 0 520 48" fill="none" xmlns="http://www.w3.org/2000/svg">
<path d="M29.1875 18.1875V16.6875H29.875V10.1875H29.1875V8.6875H28.4375V8H27.75V7.25H27.0625V6.5625H26.25V5.75H24.8125V5.0625H23.3125V4.3125H20.375V5.0625H19.6875V4.3125H14.625V5.0625H13.875V21.875H14.625V22.5625H21.875V21.875H24.8125V21.125H26.25V20.4375H27.75V18.9375H28.4375V18.1875H29.1875ZM1.4375 0.6875V0H26.25V0.6875H29.875V1.4375H30.625V2.125H32.125V2.8125H32.8125V3.625H33.5625V4.3125H34.25V5.75H35.0625V6.5625H35.75V8H36.5V16.6875H35.75V18.1875H35.0625V19.625H34.25V21.125H33.5625V21.875H32.8125V22.5625H32.125V23.375H30.625V24.0625H29.1875V24.75H27.75V25.5H24.8125V26.1875H22.625V27H13.875V29.125H13.1875V40.0625H13.875V41.5625H15.3125V42.3125H20.375V43H21.875V43.8125H22.625V45.9375H21.875V46.625H19.6875V47.4375H14.625V46.625H12.375V47.4375H2.25V46.625H1.4375V43.8125H2.25V43H2.9375V42.3125H6.5625V41.5625H7.3125V40.875H8V6.5625H7.3125V5.0625H5.875V4.3125H2.25V5.0625H0.75V3.625H0V1.4375H0.75V0.6875H1.4375ZM71.105 13.875V13.25H73.23V13.875H76.0425V14.625H77.48V15.3125H78.105V16.0625H78.855V19.5625H78.105V20.1875H77.48V20.9375H71.105V20.1875H68.98V19.5625H68.355V20.1875H65.5425V20.9375H64.105V21.625H62.73V22.375H61.98V23.0625H61.2925V23.8125H60.5425V24.4375H59.855V25.1875H59.105V25.875H58.48V40.625H59.105V41.3125H59.855V42.0625H70.4175V42.75H71.105V44.125H71.855V44.875H71.105V45.5625H70.4175V46.3125H63.355V45.5625H62.73V46.3125H47.9175V45.5625H47.2925V44.875H46.5425V42.75H47.2925V42.0625H50.73V41.3125H52.1675V40.625H52.855V39.25H53.605V27.9375H52.855V26.625H53.605V25.875H52.855V20.1875H52.1675V19.5625H50.73V18.8125H48.605V19.5625H45.105V20.1875H44.48V18.8125H43.73V16.0625H44.48V15.3125H48.605V14.625H52.855V13.875H56.4175V15.3125H57.0425V16.0625H57.7925V18.125H58.48V19.5625H59.855V18.8125H61.2925V18.125H61.98V17.375H62.73V16.75H64.105V16.0625H65.5425V15.3125H66.9175V14.625H68.355V13.875H71.105ZM113.46 35.125V32.3125H114.21V28.8125H113.46V26H112.772V24.5625H112.022V23.9375H111.397V21.75H110.71V21.125H109.96V20.375H109.335V19.6875H107.897V18.9375H106.46V18.25H98.0225V18.9375H96.585V19.6875H95.96V20.375H95.21V21.125H94.5225V21.75H93.7725V23.1875H93.1475V25.3125H92.3975V28.0625H91.71V33.0625H92.3975V35.875H93.1475V36.5625H93.7725V37.9375H94.5225V38.625H95.21V39.375H95.96V40.0625H96.585V40.8125H97.335V41.4375H98.7725V42.1875H100.835V42.875H105.085V42.1875H107.147V41.4375H108.585V40.8125H109.96V40.0625H110.71V39.375H111.397V37.9375H112.022V36.5625H112.772V35.125H113.46ZM100.21 14.0625V13.375H105.085V14.0625H108.585V14.8125H110.71V15.4375H112.772V16.1875H113.46V16.875H114.21V17.5H114.835V18.25H115.585V18.9375H116.272V20.375H117.022V21.125H117.71V22.5H118.46V23.9375H119.085V27.4375H119.835V32.3125H119.085V34.5H118.46V37.9375H117.71V39.375H117.022V40.0625H116.272V40.8125H115.585V41.4375H114.835V42.1875H114.21V42.875H112.772V43.625H112.022V44.25H111.397V45H109.96V45.6875H108.585V46.4375H105.71V47.125H98.7725V46.4375H96.585V45.6875H94.5225V45H93.1475V44.25H92.3975V43.625H90.96V42.875H90.335V42.1875H89.6475V41.4375H88.8975V40.0625H88.21V38.625H87.46V36.5625H86.835V35.125H86.085V26H86.835V23.9375H87.46V22.5H88.21V21.125H88.8975V20.375H89.6475V18.9375H90.335V18.25H91.71V17.5H92.3975V16.875H93.1475V16.1875H94.5225V15.4375H95.96V14.8125H97.335V14.0625H100.21ZM101.835 7L101.522 6.5L104.96 4.5L105.272 5L110.022 2.1875L109.772 1.6875L112.46 0.125L112.71 0.625L113.085 0.375L113.335 0.8125L113.71 0.625L115.022 3L114.71 3.1875L115.272 4.125L113.897 4.9375L114.21 5.4375L103.647 11.625L103.397 11.125L103.022 11.3125L102.772 10.875L102.397 11.0625L100.772 8.25L101.085 8.0625L100.835 7.625L101.835 7ZM128.503 15.5V14.75H139.065V15.5H142.503V16.875H143.253V17.5625H142.503V18.25H141.878V18.9375H141.19V19.625H140.44V21.8125H141.878V23.1875H142.503V23.875H143.253V24.625H143.94V25.25H144.69V26H146.065V26.6875H146.753V26H148.19V25.25H148.94V24.625H149.565V23.875H150.315V23.1875H151.003V22.4375H151.753V21.8125H152.378V19.625H151.753V18.9375H150.315V18.25H149.565V17.5625H148.94V16.875H149.565V16.125H150.315V15.5H162.94V16.125H163.565V18.9375H160.128V19.625H158.69V20.375H158.065V21.0625H157.315V21.8125H156.628V22.4375H155.19V23.1875H154.44V24.625H153.815V25.25H153.065V26.6875H152.378V27.4375H151.753V28.125H151.003V31.5625H151.753V32.3125H152.378V33H153.065V33.75H153.815V34.4375H154.44V35.8125H155.878V36.5625H156.628V37.25H157.315V38.625H158.065V39.3125H158.69V40.0625H159.44V40.75H160.128V41.5H161.503V42.125H164.315V42.875H165.003V43.5625H165.753V44.9375H166.44V45.6875H165.753V46.375H151.003V45.6875H150.315V42.875H152.378V42.125H153.065V40.0625H152.378V39.3125H151.753V38.625H151.003V37.25H150.315V36.5625H149.565V35.8125H148.94V35.1875H148.19V34.4375H147.503V33.75H144.69V34.4375H143.94V35.8125H143.253V36.5625H141.878V38H141.19V38.625H140.44V39.3125H139.815V40.75H139.065V41.5H139.815V42.875H142.503V43.5625H143.253V44.9375H142.503V46.375H129.253V45.6875H128.503V42.875H129.253V42.125H131.315V41.5H133.378V40.75H134.128V40.0625H134.815V39.3125H135.565V38.625H136.19V38H136.94V36.5625H137.628V35.8125H139.065V34.4375H139.815V33.75H140.44V33H141.19V32.3125H141.878V28.75H141.19V27.4375H140.44V26.6875H139.815V26H139.065V25.25H138.378V24.625H137.628V23.875H136.94V23.1875H136.19V22.4375H135.565V21.8125H134.815V21.0625H134.128V20.375H133.378V19.625H132.003V18.9375H127.815V18.25H127.065V16.125H127.815V15.5H128.503ZM187.045 0.6875V0H190.545V0.6875H191.92V1.4375H192.67V2.0625H193.357V6.3125H192.67V7H191.92V7.75H191.295V8.375H190.545V9.125H189.107V9.8125H187.045V9.125H184.982V8.375H184.232V7.75H183.545V3.5H184.232V2.0625H184.982V1.4375H185.607V0.6875H187.045ZM186.357 14.8125V14.0625H189.107V14.8125H190.545V16.875H191.295V18.9375H190.545V40.8125H191.295V41.4375H192.67V42.1875H203.857V42.875H205.295V45.6875H204.607V46.4375H203.232V47.125H199.67V46.4375H177.17V47.125H175.857V46.4375H174.42V45H173.67V44.25H174.42V42.875H175.107V42.1875H182.17V41.4375H183.545V40.8125H184.982V19.6875H182.795V18.9375H177.92V19.6875H175.107V18.9375H174.42V18.25H173.67V16.1875H174.42V15.4375H179.982V14.8125H186.357ZM230.15 14.8125V14.0625H230.9V14.8125H233.587V15.4375H235.025V16.1875H236.462V16.875H238.587V16.1875H240.025V15.4375H242.837V14.8125H249.15V15.4375H250.525V16.1875H251.212V16.875H251.962V18.25H252.587V18.9375H253.337V21.125H254.025V33.75H253.337V41.4375H254.025V42.1875H255.462V42.875H257.525V44.25H258.275V45H257.525V46.4375H246.962V45.6875H246.337V45H245.587V44.25H246.337V43.625H246.962V42.875H247.712V40.8125H248.4V21.75H247.712V20.375H246.337V18.9375H240.65V19.6875H240.025V20.375H239.275V21.125H238.587V41.4375H239.275V42.1875H240.025V42.875H242.087V44.25H242.837V45H242.087V46.4375H232.275V45.6875H231.525V43.625H232.275V42.875H232.962V42.1875H233.587V37.9375H234.337V23.9375H233.587V21.75H232.962V21.125H232.275V19.6875H231.525V18.9375H226.65V19.6875H225.9V20.375H224.462V21.125H223.837V21.75H223.087V41.4375H223.837V42.1875H224.462V42.875H227.337V43.625H228.087V44.25H228.712V45H228.087V45.6875H227.337V46.4375H217.525V45.6875H216.087V42.875H216.775V42.1875H217.525V41.4375H218.212V21.125H217.525V20.375H213.275V18.9375H212.525V17.5H213.275V16.1875H215.337V15.4375H218.962V14.8125H221.775V15.4375H223.087V16.1875H223.837V15.4375H226.65V14.8125H230.15ZM287.943 39.125V37.6875H288.693V32.0625H287.943V31.375H278.193V32.0625H276.005V32.8125H274.63V33.5H273.255V34.25H272.505V34.875H271.88V36.3125H271.13V39.125H271.88V40.5625H273.255V41.1875H274.63V41.9375H278.818V42.625H279.568V41.9375H283.068V41.1875H284.505V40.5625H285.88V39.8125H287.318V39.125H287.943ZM279.568 14.5625V13.8125H289.38V14.5625H290.755V15.1875H292.193V15.875H292.943V16.625H293.63V17.3125H294.38V18.6875H295.005V26.4375H294.38V41.1875H297.068V40.5625H299.255V41.1875H299.88V41.9375H300.63V44H299.88V44.75H297.068V45.4375H295.005V46.1875H290.13V45.4375H289.38V44.75H287.943V44H286.568V44.75H284.505V45.4375H281.63V46.1875H271.88V45.4375H270.443V44.75H269.068V44H267.63V43.375H266.88V41.9375H266.255V40.5625H265.505V35.625H266.255V34.25H266.88V32.8125H267.63V32.0625H268.318V31.375H269.693V30.625H271.13V30H272.505V29.25H274.63V28.5625H277.443V27.8125H281.63V27.1875H282.38V27.8125H285.88V27.1875H287.943V26.4375H288.693V25.75H289.38V20.125H288.693V19.4375H287.943V18.6875H287.318V18H285.88V17.3125H280.255V18H278.818V18.6875H277.443V19.4375H276.755V20.125H276.005V22.25H275.38V22.9375H274.63V23.6875H271.13V22.9375H270.443V22.25H269.693V18.6875H270.443V17.3125H271.88V16.625H273.255V15.875H274.63V15.1875H276.005V14.5625H279.568ZM325.485 14.8125V14.0625H326.235V14.8125H328.922V15.4375H330.36V16.1875H331.797V16.875H333.922V16.1875H335.36V15.4375H338.172V14.8125H344.485V15.4375H345.86V16.1875H346.547V16.875H347.297V18.25H347.922V18.9375H348.672V21.125H349.36V33.75H348.672V41.4375H349.36V42.1875H350.797V42.875H352.86V44.25H353.61V45H352.86V46.4375H342.297V45.6875H341.672V45H340.922V44.25H341.672V43.625H342.297V42.875H343.047V40.8125H343.735V21.75H343.047V20.375H341.672V18.9375H335.985V19.6875H335.36V20.375H334.61V21.125H333.922V41.4375H334.61V42.1875H335.36V42.875H337.422V44.25H338.172V45H337.422V46.4375H327.61V45.6875H326.86V43.625H327.61V42.875H328.297V42.1875H328.922V37.9375H329.672V23.9375H328.922V21.75H328.297V21.125H327.61V19.6875H326.86V18.9375H321.985V19.6875H321.235V20.375H319.797V21.125H319.172V21.75H318.422V41.4375H319.172V42.1875H319.797V42.875H322.672V43.625H323.422V44.25H324.047V45H323.422V45.6875H322.672V46.4375H312.86V45.6875H311.422V42.875H312.11V42.1875H312.86V41.4375H313.547V21.125H312.86V20.375H308.61V18.9375H307.86V17.5H308.61V16.1875H310.672V15.4375H314.297V14.8125H317.11V15.4375H318.422V16.1875H319.172V15.4375H321.985V14.8125H325.485ZM386.152 26.4375V25.0625H386.777V24.3125H386.152V22.9375H385.402V22.25H384.715V21.5H383.965V20.125H382.59V19.4375H381.902V18.6875H379.715V18H374.215V18.6875H372.777V19.4375H372.027V20.125H371.34V20.875H370.59V21.5H369.965V22.25H369.215V22.9375H368.527V24.3125H367.777V27.8125H379.09V27.1875H385.402V26.4375H386.152ZM372.777 14.5625V13.8125H382.59V14.5625H383.965V15.1875H385.402V15.875H386.152V16.625H387.465V17.3125H388.215V18H388.84V18.6875H389.59V20.125H390.277V20.875H391.027V22.25H391.715V24.3125H392.465V30H391.715V30.625H389.59V31.375H371.34V32.0625H367.777V32.8125H367.152V34.875H367.777V36.3125H368.527V37.6875H369.215V38.375H369.965V39.125H370.59V39.8125H372.027V40.5625H373.465V41.1875H376.277V41.9375H381.902V41.1875H386.152V40.5625H388.215V39.8125H390.277V39.125H393.09V39.8125H393.84V41.9375H393.09V42.625H392.465V43.375H391.027V44H389.59V44.75H386.777V45.4375H383.965V46.1875H380.465V46.875H373.465V46.1875H370.59V45.4375H368.527V44.75H367.152V44H366.402V43.375H365.715V42.625H364.34V41.9375H363.652V40.5625H362.902V39.8125H362.215V38.375H361.465V34.875H360.84V28.5625H361.465V25.0625H362.215V23.6875H362.902V22.25H363.652V20.875H364.34V20.125H365.09V19.4375H365.715V18H366.402V17.3125H367.152V16.625H368.527V15.875H369.965V15.1875H371.34V14.5625H372.777ZM422.133 14.8125V14.0625H428.445V14.8125H429.195V15.4375H430.508V16.1875H431.945V16.875H432.695V17.5H433.32V18.25H434.07V19.6875H434.758V21.75H435.508V41.4375H436.195V42.1875H439.758V42.875H441.07V46.4375H439.758V47.125H434.07V46.4375H427.07V45H426.383V44.25H427.07V43.625H427.82V42.875H428.445V42.1875H429.195V41.4375H429.883V33.0625H430.508V26.75H429.883V23.1875H429.195V21.75H428.445V21.125H427.82V20.375H427.07V19.6875H425.633V18.9375H420.758V19.6875H419.32V20.375H417.258V21.125H415.82V21.75H413.695V23.1875H413.008V29.5H412.258V37.3125H413.008V41.4375H413.695V42.1875H417.258V42.875H418.695V43.625H419.32V44.25H420.008V45H419.32V45.6875H418.695V46.4375H405.32V45.6875H404.57V45H403.883V44.25H404.57V42.875H405.32V42.1875H406.695V41.4375H407.383V20.375H406.695V19.6875H401.758V18.9375H401.07V16.875H401.758V16.1875H403.133V15.4375H406.695V14.8125H410.883V15.4375H411.633V16.1875H412.258V17.5H415.07V16.875H415.82V16.1875H417.258V15.4375H420.008V14.8125H422.133ZM456.05 7.5625V6.8125H458.862V7.5625H459.55V9H460.3V9.6875H459.55V13.875H460.3V14.625H463.112V15.3125H464.487V14.625H475.675V13.875H476.425V14.625H477.112V15.3125H477.862V18.125H476.425V18.8125H472.237V18.125H471.487V18.8125H458.862V24.4375H458.175V40.625H458.862V41.3125H459.55V42.0625H460.3V42.75H467.3V42.0625H472.237V41.3125H474.3V40.625H477.862V41.3125H479.3V43.4375H478.55V44.125H477.112V44.875H475.675V45.5625H473.612V46.3125H470.05V46.9375H463.737V47.6875H460.3V46.9375H458.175V46.3125H456.8V45.5625H455.362V44.125H454.612V43.4375H453.987V42.0625H453.237V25.875H453.987V19.5625H452.55V18.8125H448.987V18.125H448.3V16.0625H448.987V15.3125H453.237V14.625H453.987V13.25H454.612V7.5625H456.05ZM511.843 26.4375V25.0625H512.468V24.3125H511.843V22.9375H511.093V22.25H510.405V21.5H509.655V20.125H508.28V19.4375H507.593V18.6875H505.405V18H499.905V18.6875H498.468V19.4375H497.718V20.125H497.03V20.875H496.28V21.5H495.655V22.25H494.905V22.9375H494.218V24.3125H493.468V27.8125H504.78V27.1875H511.093V26.4375H511.843ZM498.468 14.5625V13.8125H508.28V14.5625H509.655V15.1875H511.093V15.875H511.843V16.625H513.155V17.3125H513.905V18H514.53V18.6875H515.28V20.125H515.968V20.875H516.718V22.25H517.405V24.3125H518.155V30H517.405V30.625H515.28V31.375H497.03V32.0625H493.468V32.8125H492.843V34.875H493.468V36.3125H494.218V37.6875H494.905V38.375H495.655V39.125H496.28V39.8125H497.718V40.5625H499.155V41.1875H501.968V41.9375H507.593V41.1875H511.843V40.5625H513.905V39.8125H515.968V39.125H518.78V39.8125H519.53V41.9375H518.78V42.625H518.155V43.375H516.718V44H515.28V44.75H512.468V45.4375H509.655V46.1875H506.155V46.875H499.155V46.1875H496.28V45.4375H494.218V44.75H492.843V44H492.093V43.375H491.405V42.625H490.03V41.9375H489.343V40.5625H488.593V39.8125H487.905V38.375H487.155V34.875H486.53V28.5625H487.155V25.0625H487.905V23.6875H488.593V22.25H489.343V20.875H490.03V20.125H490.78V19.4375H491.405V18H492.093V17.3125H492.843V16.625H494.218V15.875H495.655V15.1875H497.03V14.5625H498.468Z" fill="white"/>
</svg>
